<?xml version="1.0" standalone="no"?>
<!DOCTYPE svg PUBLIC "-//W3C//DTD SVG 20010904//EN"
 "http://www.w3.org/TR/2001/REC-SVG-20010904/DTD/svg10.dtd">
<svg version="1.0" xmlns="http://www.w3.org/2000/svg"
 width="854.000000pt" height="1064.000000pt" viewBox="0 0 854.000000 1064.000000"
 preserveAspectRatio="xMidYMid meet">

<g transform="translate(0.000000,1064.000000) scale(0.100000,-0.100000)"
fill="#000000" stroke="none">
<path d="M3039 9691 c-2 -6 -3 -133 -1 -282 l3 -272 137 5 c114 4 146 9 189
27 130 57 193 208 149 355 -21 69 -60 115 -125 144 -50 23 -71 26 -202 30
-102 3 -148 1 -150 -7z m264 -105 c67 -28 104 -102 94 -188 -12 -98 -66 -147
-173 -156 l-64 -5 0 182 0 181 55 0 c31 0 70 -6 88 -14z"/>
<path d="M3630 9688 c0 -7 0 -128 -1 -268 0 -140 0 -261 0 -268 1 -10 37 -12
164 -10 l162 3 3 48 3 47 -105 0 -106 0 0 65 0 65 90 0 90 0 0 50 0 50 -90 0
-90 0 0 65 0 64 98 3 97 3 0 45 0 45 -157 3 c-123 2 -158 0 -158 -10z"/>
<path d="M4055 9687 c-3 -7 -4 -131 -3 -277 l3 -265 54 -3 c37 -2 57 1 62 10
5 7 9 57 9 110 l0 97 88 3 87 3 0 45 0 45 -86 3 -87 3 -3 37 c-2 20 -3 52 -1
70 l3 32 95 0 94 0 0 50 0 50 -155 0 c-116 0 -157 -3 -160 -13z"/>
<path d="M4470 9420 l0 -280 165 0 165 0 0 50 0 49 -102 3 -103 3 -3 63 -3 62
90 0 89 0 7 30 c13 61 3 69 -93 72 l-87 3 -3 63 -3 62 101 0 101 0 -3 48 -3
47 -157 3 -158 3 0 -281z"/>
<path d="M4895 9688 c-3 -7 -4 -132 -3 -278 l3 -265 57 -3 58 -3 2 198 3 198
126 -195 126 -195 62 -3 c58 -3 61 -2 62 20 1 23 1 488 0 521 -1 14 -11 17
-56 17 l-55 0 0 -192 c-1 -176 -2 -191 -16 -173 -9 11 -66 97 -127 190 l-112
170 -63 3 c-44 2 -64 -1 -67 -10z"/>
<path d="M5529 9446 c-1 -141 -1 -263 -1 -271 0 -8 0 -20 1 -26 1 -8 42 -10
139 -7 160 5 218 24 278 90 44 49 62 90 70 160 15 126 -36 231 -134 276 -52
24 -71 27 -204 30 l-148 4 -1 -256z m288 128 c15 -11 38 -40 51 -65 19 -36 23
-55 19 -101 -9 -107 -76 -168 -185 -168 l-52 0 0 181 0 181 70 -4 c49 -2 77
-9 97 -24z"/>
<path d="M6119 9698 c-5 -13 -9 -518 -4 -536 5 -22 6 -22 168 -20 l162 3 0 45
0 45 -102 3 -103 3 0 64 0 65 90 0 90 0 0 50 0 50 -90 0 -90 0 0 65 0 65 95 0
c93 0 95 1 101 25 3 14 3 36 0 50 l-6 25 -155 0 c-85 0 -155 -1 -156 -2z"/>
<path d="M6542 9424 l3 -279 58 -3 57 -3 0 105 c0 98 1 105 21 111 33 11 68
-22 130 -121 l56 -89 68 -3 c57 -3 67 -1 62 12 -11 29 -125 191 -151 215 l-25
24 43 27 c100 64 102 200 4 251 -37 20 -62 24 -186 27 l-142 4 2 -278z m231
175 c30 -16 37 -28 37 -67 0 -22 -8 -41 -25 -58 -21 -21 -33 -25 -73 -22 l-47
3 -3 64 c-2 35 -1 70 2 77 7 17 79 19 109 3z"/>
<path d="M2480 8914 c-144 -28 -273 -112 -349 -226 -137 -204 -108 -472 68
-647 103 -103 218 -151 361 -151 385 0 629 398 457 745 -55 113 -171 214 -292
255 -59 21 -194 34 -245 24z"/>
<path d="M5802 8528 c-39 -22 -51 -33 -43 -41 25 -25 7 -33 -164 -70 -60 -13
-127 -31 -147 -40 -56 -24 -152 -91 -207 -147 -62 -62 -89 -140 -98 -284 l-6
-99 -44 -49 c-51 -57 -57 -93 -17 -108 22 -9 25 -15 22 -47 l-3 -38 -175 -3
c-271 -5 -478 28 -543 85 -19 17 -56 39 -81 48 -40 16 -52 16 -88 5 -24 -6
-53 -25 -68 -42 -14 -17 -64 -72 -112 -123 l-88 -93 0 -79 c0 -50 5 -86 14
-98 7 -11 17 -31 21 -45 4 -14 19 -39 34 -57 14 -17 34 -43 44 -57 26 -38 61
-34 102 11 25 28 42 37 72 39 25 2 43 10 52 24 19 28 56 26 236 -11 111 -22
175 -41 245 -73 52 -24 132 -55 177 -70 70 -23 87 -33 118 -72 45 -54 54 -84
62 -200 6 -91 5 -93 -45 -246 -29 -85 -56 -185 -61 -222 -16 -114 -79 -215
-145 -232 -16 -4 -53 14 -131 62 -144 88 -331 177 -425 202 -90 24 -209 47
-348 66 -95 14 -111 19 -230 83 -194 105 -230 118 -480 177 l-232 55 -133 79
c-294 175 -420 238 -545 272 -42 12 -110 39 -151 61 -148 80 -341 253 -354
318 -5 22 -20 40 -53 64 -79 54 -224 294 -345 570 -33 76 -49 101 -68 109 -39
14 -66 -4 -84 -57 -9 -25 -25 -57 -36 -72 -25 -31 -27 -49 -6 -57 11 -4 15
-22 15 -73 0 -64 -2 -70 -31 -95 -38 -34 -38 -79 1 -88 21 -5 28 -16 43 -75
11 -41 21 -122 24 -196 l5 -125 -26 -17 c-35 -23 -34 -87 1 -87 12 0 10 -7 -6
-34 -12 -18 -21 -40 -21 -48 0 -27 40 -68 66 -68 14 0 24 -6 24 -15 0 -30 24
-64 52 -76 24 -10 43 -9 96 1 134 26 154 27 230 14 109 -17 122 -24 215 -111
131 -124 304 -274 411 -357 225 -176 321 -227 595 -316 193 -63 285 -105 376
-172 33 -25 166 -148 295 -274 237 -232 291 -276 432 -353 l76 -42 14 -62 13
-62 77 -40 c43 -22 78 -44 78 -49 0 -5 -40 -65 -88 -135 -49 -69 -94 -135
-100 -147 -8 -16 -5 -58 16 -182 30 -185 35 -150 -58 -412 -89 -251 -126 -406
-140 -580 -15 -182 -8 -278 35 -446 29 -111 35 -157 40 -276 5 -163 32 -342
75 -503 43 -164 51 -222 51 -373 -1 -154 -6 -179 -83 -412 -68 -208 -84 -240
-168 -345 -99 -123 -162 -220 -158 -242 2 -11 21 -24 53 -35 87 -30 336 -19
391 17 12 8 40 47 62 87 70 128 92 151 210 222 62 37 128 87 155 115 46 49 47
52 47 113 0 79 -15 112 -125 277 l-87 130 21 203 c56 545 61 674 36 893 -13
113 -41 294 -61 391 -7 34 -6 35 227 409 148 237 357 531 414 583 31 28 76 56
111 69 181 69 315 220 410 464 21 52 40 97 44 102 3 4 46 15 96 25 l89 17 5
165 c5 162 6 167 42 253 20 48 55 117 78 153 55 87 189 376 256 551 74 194
124 392 124 491 0 93 -21 241 -55 380 -18 76 -25 131 -25 207 0 70 -4 106 -12
112 -31 24 -159 62 -188 57 -16 -4 -30 -5 -30 -2 0 2 18 24 40 48 23 25 53 70
68 100 23 47 27 67 26 140 0 70 -6 101 -33 175 -46 128 -47 129 -18 167 45 60
67 115 67 167 0 42 -5 54 -30 80 -39 39 -129 72 -210 76 -58 4 -71 1 -118 -27z"/>
</g>
</svg>
