<?xml version="1.0" encoding="UTF-8"?>
<svg xmlns="http://www.w3.org/2000/svg" xmlns:xlink="http://www.w3.org/1999/xlink" width="100px" height="100px" viewBox="0 0 100 124" version="1.1">
<g id="surface1">
<path style=" stroke:none;fill-rule:nonzero;fill:rgb(0%,0%,0%);fill-opacity:1;" d="M 35.570312 11.058594 C 35.546875 11.128906 35.535156 12.609375 35.558594 14.347656 L 35.59375 17.515625 L 37.195312 17.457031 C 38.53125 17.410156 38.90625 17.351562 39.40625 17.144531 C 40.929688 16.480469 41.667969 14.71875 41.152344 13.007812 C 40.90625 12.203125 40.449219 11.664062 39.6875 11.328125 C 39.101562 11.058594 38.859375 11.023438 37.324219 10.976562 C 36.128906 10.941406 35.59375 10.964844 35.570312 11.058594 Z M 38.660156 12.285156 C 39.441406 12.609375 39.875 13.472656 39.757812 14.472656 C 39.617188 15.617188 38.988281 16.1875 37.734375 16.292969 L 36.984375 16.351562 L 36.984375 12.121094 L 37.628906 12.121094 C 37.992188 12.121094 38.449219 12.191406 38.660156 12.285156 Z M 38.660156 12.285156 "/>
<path style=" stroke:none;fill-rule:nonzero;fill:rgb(0%,0%,0%);fill-opacity:1;" d="M 42.484375 11.09375 C 42.484375 11.175781 42.484375 12.585938 42.472656 14.21875 C 42.472656 15.851562 42.472656 17.261719 42.472656 17.339844 C 42.484375 17.457031 42.90625 17.480469 44.394531 17.457031 L 46.289062 17.421875 L 46.324219 16.863281 L 46.359375 16.316406 L 43.890625 16.316406 L 43.890625 14.800781 L 45.996094 14.800781 L 45.996094 13.636719 L 43.890625 13.636719 L 43.890625 12.132812 L 45.039062 12.097656 L 46.171875 12.0625 L 46.171875 11.011719 L 44.335938 10.976562 C 42.894531 10.953125 42.484375 10.976562 42.484375 11.09375 Z M 42.484375 11.09375 "/>
<path style=" stroke:none;fill-rule:nonzero;fill:rgb(0%,0%,0%);fill-opacity:1;" d="M 47.460938 11.105469 C 47.425781 11.1875 47.414062 12.632812 47.425781 14.335938 L 47.460938 17.421875 L 48.09375 17.457031 C 48.523438 17.480469 48.757812 17.445312 48.816406 17.339844 C 48.875 17.261719 48.921875 16.675781 48.921875 16.058594 L 48.921875 14.929688 L 49.953125 14.894531 L 50.972656 14.859375 L 50.972656 13.808594 L 49.964844 13.773438 L 48.945312 13.738281 L 48.910156 13.308594 C 48.886719 13.074219 48.875 12.703125 48.898438 12.492188 L 48.933594 12.121094 L 51.148438 12.121094 L 51.148438 10.953125 L 49.332031 10.953125 C 47.976562 10.953125 47.496094 10.988281 47.460938 11.105469 Z M 47.460938 11.105469 "/>
<path style=" stroke:none;fill-rule:nonzero;fill:rgb(0%,0%,0%);fill-opacity:1;" d="M 52.316406 14.21875 L 52.316406 17.480469 L 56.179688 17.480469 L 56.179688 16.328125 L 54.984375 16.292969 L 53.78125 16.257812 L 53.746094 15.523438 L 53.710938 14.800781 L 55.804688 14.800781 L 55.886719 14.449219 C 56.039062 13.738281 55.921875 13.648438 54.796875 13.613281 L 53.78125 13.578125 L 53.746094 12.84375 L 53.710938 12.121094 L 56.074219 12.121094 L 56.039062 11.5625 L 56.003906 11.011719 L 54.167969 10.976562 L 52.316406 10.941406 Z M 52.316406 14.21875 "/>
<path style=" stroke:none;fill-rule:nonzero;fill:rgb(0%,0%,0%);fill-opacity:1;" d="M 57.292969 11.09375 C 57.257812 11.175781 57.246094 12.632812 57.257812 14.335938 L 57.292969 17.421875 L 57.957031 17.457031 L 58.636719 17.492188 L 58.660156 15.183594 L 58.695312 12.878906 L 60.171875 15.148438 L 61.644531 17.421875 L 62.371094 17.457031 C 63.050781 17.492188 63.085938 17.480469 63.097656 17.226562 C 63.109375 16.957031 63.109375 11.539062 63.097656 11.152344 C 63.085938 10.988281 62.96875 10.953125 62.441406 10.953125 L 61.796875 10.953125 L 61.796875 13.191406 C 61.785156 15.242188 61.773438 15.417969 61.609375 15.207031 C 61.503906 15.082031 60.839844 14.078125 60.125 12.996094 L 58.8125 11.011719 L 58.074219 10.976562 C 57.5625 10.953125 57.328125 10.988281 57.292969 11.09375 Z M 57.292969 11.09375 "/>
<path style=" stroke:none;fill-rule:nonzero;fill:rgb(0%,0%,0%);fill-opacity:1;" d="M 64.710938 13.914062 C 64.699219 15.558594 64.699219 16.980469 64.699219 17.074219 C 64.699219 17.167969 64.699219 17.304688 64.710938 17.375 C 64.722656 17.46875 65.203125 17.492188 66.339844 17.457031 C 68.210938 17.398438 68.890625 17.179688 69.59375 16.410156 C 70.109375 15.839844 70.316406 15.359375 70.410156 14.542969 C 70.585938 13.074219 69.992188 11.851562 68.84375 11.328125 C 68.234375 11.046875 68.011719 11.011719 66.457031 10.976562 L 64.722656 10.929688 Z M 68.082031 12.421875 C 68.257812 12.550781 68.527344 12.890625 68.679688 13.179688 C 68.902344 13.601562 68.949219 13.820312 68.902344 14.359375 C 68.796875 15.605469 68.011719 16.316406 66.738281 16.316406 L 66.128906 16.316406 L 66.128906 12.097656 L 66.949219 12.144531 C 67.519531 12.167969 67.847656 12.25 68.082031 12.421875 Z M 68.082031 12.421875 "/>
<path style=" stroke:none;fill-rule:nonzero;fill:rgb(0%,0%,0%);fill-opacity:1;" d="M 71.617188 10.976562 C 71.558594 11.128906 71.511719 17.015625 71.570312 17.226562 C 71.628906 17.480469 71.640625 17.480469 73.535156 17.457031 L 75.433594 17.421875 L 75.433594 16.375 L 74.238281 16.339844 L 73.035156 16.304688 L 73.035156 14.800781 L 75.140625 14.800781 L 75.140625 13.636719 L 73.035156 13.636719 L 73.035156 12.121094 L 74.144531 12.121094 C 75.234375 12.121094 75.257812 12.109375 75.328125 11.828125 C 75.363281 11.664062 75.363281 11.410156 75.328125 11.246094 L 75.257812 10.953125 L 73.441406 10.953125 C 72.449219 10.953125 71.628906 10.964844 71.617188 10.976562 Z M 71.617188 10.976562 "/>
<path style=" stroke:none;fill-rule:nonzero;fill:rgb(0%,0%,0%);fill-opacity:1;" d="M 76.566406 14.171875 L 76.601562 17.421875 L 77.28125 17.457031 L 77.949219 17.492188 L 77.949219 16.269531 C 77.949219 15.128906 77.960938 15.046875 78.195312 14.976562 C 78.582031 14.847656 78.992188 15.230469 79.714844 16.386719 L 80.371094 17.421875 L 81.167969 17.457031 C 81.835938 17.492188 81.953125 17.46875 81.894531 17.316406 C 81.765625 16.980469 80.429688 15.09375 80.125 14.8125 L 79.832031 14.53125 L 80.335938 14.21875 C 81.507812 13.472656 81.53125 11.886719 80.382812 11.292969 C 79.949219 11.058594 79.660156 11.011719 78.207031 10.976562 L 76.546875 10.929688 Z M 79.273438 12.132812 C 79.625 12.320312 79.703125 12.457031 79.703125 12.914062 C 79.703125 13.167969 79.613281 13.390625 79.414062 13.589844 C 79.167969 13.832031 79.027344 13.878906 78.558594 13.84375 L 78.007812 13.808594 L 77.972656 13.0625 C 77.949219 12.65625 77.960938 12.25 77.996094 12.167969 C 78.078125 11.96875 78.921875 11.945312 79.273438 12.132812 Z M 79.273438 12.132812 "/>
<path style=" stroke:none;fill-rule:nonzero;fill:rgb(0%,0%,0%);fill-opacity:1;" d="M 29.027344 20.113281 C 27.339844 20.441406 25.832031 21.421875 24.941406 22.75 C 23.339844 25.125 23.675781 28.25 25.738281 30.289062 C 26.941406 31.488281 28.289062 32.050781 29.960938 32.050781 C 34.46875 32.050781 37.324219 27.410156 35.3125 23.367188 C 34.667969 22.050781 33.308594 20.871094 31.894531 20.394531 C 31.203125 20.148438 29.625 20 29.027344 20.113281 Z M 29.027344 20.113281 "/>
<path style=" stroke:none;fill-rule:nonzero;fill:rgb(0%,0%,0%);fill-opacity:1;" d="M 67.90625 24.613281 C 67.449219 24.871094 67.308594 25 67.402344 25.089844 C 67.695312 25.382812 67.484375 25.476562 65.484375 25.90625 C 64.78125 26.058594 64 26.269531 63.765625 26.375 C 63.109375 26.652344 61.984375 27.433594 61.339844 28.085938 C 60.617188 28.808594 60.300781 29.71875 60.195312 31.394531 L 60.125 32.550781 L 59.609375 33.121094 C 59.011719 33.785156 58.941406 34.203125 59.410156 34.378906 C 59.667969 34.484375 59.703125 34.554688 59.667969 34.925781 L 59.632812 35.371094 L 57.585938 35.40625 C 54.414062 35.464844 51.988281 35.078125 51.230469 34.414062 C 51.007812 34.214844 50.574219 33.960938 50.28125 33.855469 C 49.8125 33.667969 49.671875 33.667969 49.25 33.796875 C 48.96875 33.867188 48.628906 34.089844 48.453125 34.285156 C 48.292969 34.484375 47.707031 35.125 47.144531 35.71875 L 46.113281 36.804688 L 46.113281 37.722656 C 46.113281 38.308594 46.171875 38.726562 46.277344 38.867188 C 46.359375 38.996094 46.476562 39.226562 46.523438 39.390625 C 46.570312 39.554688 46.746094 39.84375 46.921875 40.054688 C 47.085938 40.253906 47.320312 40.554688 47.4375 40.71875 C 47.742188 41.164062 48.152344 41.117188 48.628906 40.589844 C 48.921875 40.265625 49.121094 40.160156 49.472656 40.136719 C 49.765625 40.113281 49.976562 40.019531 50.082031 39.855469 C 50.304688 39.53125 50.738281 39.554688 52.84375 39.984375 C 54.144531 40.242188 54.890625 40.464844 55.710938 40.835938 C 56.320312 41.117188 57.257812 41.476562 57.785156 41.652344 C 58.601562 41.921875 58.800781 42.035156 59.164062 42.492188 C 59.691406 43.121094 59.796875 43.46875 59.890625 44.820312 C 59.960938 45.882812 59.949219 45.90625 59.363281 47.6875 C 59.023438 48.679688 58.707031 49.84375 58.648438 50.277344 C 58.460938 51.605469 57.726562 52.78125 56.953125 52.980469 C 56.765625 53.027344 56.332031 52.816406 55.417969 52.257812 C 53.734375 51.230469 51.546875 50.195312 50.445312 49.902344 C 49.390625 49.625 48 49.355469 46.371094 49.132812 C 45.261719 48.96875 45.074219 48.914062 43.679688 48.167969 C 41.410156 46.941406 40.988281 46.792969 38.0625 46.105469 L 35.347656 45.460938 L 33.789062 44.542969 C 30.347656 42.503906 28.875 41.769531 27.410156 41.371094 C 26.917969 41.230469 26.125 40.917969 25.644531 40.660156 C 23.910156 39.730469 21.652344 37.710938 21.5 36.957031 C 21.441406 36.699219 21.265625 36.488281 20.878906 36.210938 C 19.957031 35.578125 18.257812 32.78125 16.84375 29.566406 C 16.457031 28.679688 16.269531 28.390625 16.046875 28.296875 C 15.589844 28.132812 15.273438 28.34375 15.0625 28.960938 C 14.957031 29.25 14.769531 29.625 14.640625 29.800781 C 14.347656 30.160156 14.324219 30.371094 14.570312 30.464844 C 14.699219 30.511719 14.746094 30.71875 14.746094 31.316406 C 14.746094 32.058594 14.722656 32.128906 14.382812 32.421875 C 13.941406 32.816406 13.941406 33.34375 14.394531 33.449219 C 14.640625 33.503906 14.722656 33.632812 14.898438 34.320312 C 15.027344 34.800781 15.144531 35.742188 15.179688 36.605469 L 15.238281 38.0625 L 14.933594 38.261719 C 14.523438 38.527344 14.535156 39.273438 14.945312 39.273438 C 15.085938 39.273438 15.0625 39.355469 14.875 39.671875 C 14.734375 39.878906 14.628906 40.136719 14.628906 40.230469 C 14.628906 40.542969 15.097656 41.023438 15.402344 41.023438 C 15.566406 41.023438 15.683594 41.09375 15.683594 41.199219 C 15.683594 41.546875 15.964844 41.941406 16.292969 42.082031 C 16.574219 42.199219 16.796875 42.1875 17.414062 42.070312 C 18.984375 41.769531 19.21875 41.757812 20.109375 41.910156 C 21.382812 42.105469 21.535156 42.1875 22.625 43.203125 C 24.15625 44.648438 26.183594 46.394531 27.433594 47.363281 C 30.066406 49.414062 31.191406 50.007812 34.398438 51.046875 C 36.65625 51.78125 37.734375 52.269531 38.800781 53.050781 C 39.183594 53.339844 40.742188 54.773438 42.25 56.242188 C 45.027344 58.945312 45.65625 59.460938 47.308594 60.355469 L 48.199219 60.847656 L 48.363281 61.570312 L 48.511719 62.292969 L 49.414062 62.757812 C 49.917969 63.015625 50.328125 63.269531 50.328125 63.328125 C 50.328125 63.386719 49.859375 64.085938 49.296875 64.902344 C 48.722656 65.707031 48.199219 66.476562 48.128906 66.613281 C 48.035156 66.800781 48.070312 67.289062 48.316406 68.734375 C 48.664062 70.890625 48.722656 70.484375 47.636719 73.539062 C 46.59375 76.460938 46.160156 78.269531 45.996094 80.296875 C 45.820312 82.417969 45.902344 83.535156 46.40625 85.496094 C 46.746094 86.789062 46.816406 87.324219 46.875 88.710938 C 46.933594 90.609375 47.25 92.695312 47.753906 94.574219 C 48.257812 96.484375 48.351562 97.160156 48.351562 98.921875 C 48.339844 100.714844 48.28125 101.007812 47.378906 103.722656 C 46.582031 106.144531 46.394531 106.519531 45.410156 107.742188 C 44.253906 109.175781 43.515625 110.304688 43.5625 110.5625 C 43.585938 110.691406 43.808594 110.84375 44.183594 110.96875 C 45.203125 111.320312 48.117188 111.191406 48.757812 110.773438 C 48.898438 110.679688 49.226562 110.226562 49.484375 109.757812 C 50.304688 108.265625 50.5625 108 51.941406 107.171875 C 52.667969 106.738281 53.441406 106.15625 53.757812 105.832031 C 54.296875 105.261719 54.308594 105.226562 54.308594 104.515625 C 54.308594 103.59375 54.132812 103.210938 52.84375 101.285156 L 51.824219 99.769531 L 52.070312 97.40625 C 52.726562 91.054688 52.785156 89.550781 52.492188 87 C 52.339844 85.679688 52.011719 83.570312 51.777344 82.441406 C 51.695312 82.046875 51.707031 82.035156 54.4375 77.675781 C 56.167969 74.914062 58.613281 71.488281 59.28125 70.878906 C 59.644531 70.554688 60.171875 70.226562 60.582031 70.078125 C 62.699219 69.273438 64.265625 67.511719 65.378906 64.667969 C 65.625 64.0625 65.847656 63.539062 65.894531 63.480469 C 65.929688 63.433594 66.433594 63.304688 67.019531 63.1875 L 68.058594 62.992188 L 68.117188 61.066406 C 68.175781 59.179688 68.1875 59.121094 68.609375 58.121094 C 68.84375 57.558594 69.253906 56.753906 69.523438 56.335938 C 70.167969 55.320312 71.734375 51.953125 72.519531 49.914062 C 73.386719 47.652344 73.96875 45.347656 73.96875 44.191406 C 73.96875 43.109375 73.722656 41.382812 73.328125 39.765625 C 73.117188 38.878906 73.035156 38.238281 73.035156 37.351562 C 73.035156 36.535156 72.988281 36.117188 72.894531 36.046875 C 72.53125 35.765625 71.03125 35.324219 70.691406 35.382812 C 70.503906 35.429688 70.339844 35.441406 70.339844 35.40625 C 70.339844 35.382812 70.550781 35.125 70.808594 34.847656 C 71.078125 34.554688 71.429688 34.03125 71.605469 33.679688 C 71.875 33.132812 71.921875 32.898438 71.910156 32.050781 C 71.910156 31.234375 71.839844 30.871094 71.523438 30.007812 C 70.984375 28.519531 70.972656 28.507812 71.3125 28.0625 C 71.839844 27.363281 72.097656 26.722656 72.097656 26.117188 C 72.097656 25.628906 72.039062 25.488281 71.746094 25.183594 C 71.289062 24.730469 70.238281 24.34375 69.289062 24.300781 C 68.609375 24.253906 68.457031 24.289062 67.90625 24.613281 Z M 67.90625 24.613281 "/>
</g>
</svg>
