<?xml version="1.0" encoding="UTF-8"?>
<svg xmlns="http://www.w3.org/2000/svg" xmlns:xlink="http://www.w3.org/1999/xlink" width="100px" height="100px" viewBox="0 0 100 135" version="1.1">
<g id="surface1">
<path style=" stroke:none;fill-rule:nonzero;fill:rgb(0%,0%,0%);fill-opacity:1;" d="M 12.292969 12.292969 C 11.378906 12.628906 10.835938 13.0625 10.382812 13.871094 C 10.023438 14.515625 9.996094 14.667969 9.996094 15.847656 C 9.996094 17.324219 10.203125 17.875 11.042969 18.605469 C 11.726562 19.199219 12.320312 19.414062 13.351562 19.429688 C 14.460938 19.441406 15.519531 18.992188 16.058594 18.273438 C 17.53125 16.347656 16.976562 13.292969 15.003906 12.421875 C 14.191406 12.0625 13.09375 12.011719 12.292969 12.292969 Z M 14.304688 13.667969 C 14.847656 13.9375 15.222656 14.796875 15.222656 15.757812 C 15.222656 17.222656 14.652344 17.964844 13.507812 18.070312 C 12.898438 18.121094 12.769531 18.082031 12.398438 17.761719 C 11.828125 17.285156 11.609375 16.734375 11.609375 15.785156 C 11.609375 14.835938 11.828125 14.28125 12.371094 13.820312 C 12.859375 13.421875 13.699219 13.347656 14.304688 13.667969 Z M 14.304688 13.667969 "/>
<path style=" stroke:none;fill-rule:nonzero;fill:rgb(0%,0%,0%);fill-opacity:1;" d="M 5.03125 15.785156 L 5.03125 19.390625 L 5.777344 19.351562 L 6.515625 19.3125 L 6.554688 17.925781 L 6.59375 16.554688 L 8.902344 16.554688 L 8.902344 15.269531 L 6.578125 15.269531 L 6.578125 13.472656 L 7.804688 13.472656 C 9.003906 13.472656 9.03125 13.460938 9.105469 13.152344 C 9.144531 12.972656 9.144531 12.691406 9.105469 12.511719 L 9.03125 12.191406 L 5.03125 12.191406 Z M 5.03125 15.785156 "/>
<path style=" stroke:none;fill-rule:nonzero;fill:rgb(0%,0%,0%);fill-opacity:1;" d="M 18.1875 15.769531 L 18.1875 19.378906 L 19.738281 19.378906 L 19.738281 18.03125 C 19.738281 16.914062 19.777344 16.65625 19.941406 16.59375 C 20.332031 16.453125 20.78125 16.824219 21.414062 17.800781 C 22.472656 19.480469 22.34375 19.378906 23.285156 19.378906 C 23.75 19.378906 24.121094 19.351562 24.121094 19.3125 C 24.121094 19.160156 22.445312 16.707031 22.136719 16.4375 L 21.800781 16.117188 L 22.277344 15.859375 C 23.285156 15.308594 23.644531 13.742188 22.921875 12.988281 C 22.34375 12.371094 21.980469 12.269531 20.035156 12.214844 L 18.1875 12.164062 Z M 21.347656 13.667969 C 21.699219 14 21.75 14.359375 21.515625 14.796875 C 21.285156 15.246094 21 15.386719 20.355469 15.398438 L 19.738281 15.398438 L 19.738281 14.460938 C 19.738281 13.9375 19.777344 13.472656 19.828125 13.4375 C 19.867188 13.382812 20.164062 13.347656 20.472656 13.347656 C 20.898438 13.347656 21.117188 13.421875 21.347656 13.667969 Z M 21.347656 13.667969 "/>
<path style=" stroke:none;fill-rule:nonzero;fill:rgb(0%,0%,0%);fill-opacity:1;" d="M 24.25 12.371094 C 24.25 12.472656 24.601562 13.871094 25.039062 15.488281 C 25.464844 17.09375 25.878906 18.632812 25.941406 18.890625 L 26.070312 19.378906 L 26.972656 19.378906 C 28.042969 19.378906 27.863281 19.671875 28.652344 16.527344 C 28.960938 15.269531 29.242188 14.246094 29.28125 14.246094 C 29.320312 14.246094 29.605469 15.269531 29.914062 16.527344 C 30.703125 19.683594 30.535156 19.390625 31.554688 19.351562 L 32.417969 19.3125 L 33.347656 15.847656 C 33.863281 13.9375 34.234375 12.332031 34.183594 12.28125 C 34.132812 12.214844 33.785156 12.191406 33.398438 12.214844 L 32.703125 12.253906 L 32.160156 14.886719 C 31.863281 16.335938 31.605469 17.542969 31.605469 17.582031 C 31.59375 17.621094 31.308594 16.515625 30.972656 15.128906 C 30.636719 13.742188 30.316406 12.511719 30.277344 12.394531 C 30.210938 12.242188 30.019531 12.191406 29.347656 12.191406 C 28.882812 12.191406 28.507812 12.214844 28.507812 12.253906 C 28.507812 12.292969 28.25 13.257812 27.941406 14.398438 C 27.617188 15.554688 27.296875 16.746094 27.207031 17.066406 L 27.050781 17.644531 L 26.636719 15.65625 C 26.40625 14.566406 26.148438 13.332031 26.070312 12.921875 L 25.914062 12.191406 L 25.078125 12.191406 C 24.445312 12.191406 24.25 12.230469 24.25 12.371094 Z M 24.25 12.371094 "/>
<path style=" stroke:none;fill-rule:nonzero;fill:rgb(0%,0%,0%);fill-opacity:1;" d="M 36.699219 12.34375 C 36.660156 12.433594 36.09375 14.011719 35.421875 15.847656 C 34.753906 17.683594 34.234375 19.222656 34.273438 19.273438 C 34.300781 19.339844 34.675781 19.378906 35.085938 19.378906 L 35.835938 19.378906 L 36.121094 18.542969 L 36.402344 17.710938 L 37.601562 17.710938 C 38.402344 17.710938 38.839844 17.761719 38.917969 17.863281 C 38.996094 17.953125 39.152344 18.339844 39.265625 18.695312 L 39.5 19.378906 L 40.324219 19.378906 C 40.777344 19.378906 41.152344 19.339844 41.152344 19.273438 C 41.164062 19.109375 38.789062 12.511719 38.660156 12.34375 C 38.582031 12.253906 38.210938 12.191406 37.640625 12.191406 C 37.046875 12.191406 36.738281 12.242188 36.699219 12.34375 Z M 38.105469 14.910156 C 38.3125 15.566406 38.507812 16.207031 38.53125 16.324219 C 38.597656 16.527344 38.492188 16.554688 37.679688 16.554688 C 37.175781 16.554688 36.765625 16.515625 36.765625 16.476562 C 36.765625 16.257812 37.589844 13.730469 37.667969 13.730469 C 37.71875 13.730469 37.914062 14.269531 38.105469 14.910156 Z M 38.105469 14.910156 "/>
<path style=" stroke:none;fill-rule:nonzero;fill:rgb(0%,0%,0%);fill-opacity:1;" d="M 42.207031 15.734375 L 42.246094 19.3125 L 42.984375 19.351562 L 43.71875 19.390625 L 43.757812 18.003906 C 43.796875 16.722656 43.808594 16.617188 44.066406 16.578125 C 44.464844 16.527344 44.929688 16.964844 45.535156 17.992188 C 46.347656 19.378906 46.347656 19.378906 47.304688 19.378906 C 47.742188 19.378906 48.117188 19.351562 48.117188 19.3125 C 48.117188 19.160156 46.632812 16.964844 46.273438 16.566406 C 45.886719 16.167969 45.871094 16.128906 46.105469 15.988281 C 46.660156 15.644531 46.929688 15.375 47.136719 14.964844 C 47.574219 14.039062 47.277344 13.0625 46.402344 12.5625 C 45.910156 12.292969 45.664062 12.253906 44.015625 12.214844 L 42.183594 12.164062 Z M 45.34375 13.667969 C 45.691406 14 45.742188 14.320312 45.523438 14.796875 C 45.34375 15.195312 44.90625 15.398438 44.246094 15.398438 L 43.730469 15.398438 L 43.730469 14.460938 C 43.730469 13.9375 43.769531 13.472656 43.820312 13.4375 C 43.859375 13.382812 44.15625 13.347656 44.464844 13.347656 C 44.890625 13.347656 45.109375 13.421875 45.34375 13.667969 Z M 45.34375 13.667969 "/>
<path style=" stroke:none;fill-rule:nonzero;fill:rgb(0%,0%,0%);fill-opacity:1;" d="M 48.917969 15.746094 L 48.957031 19.3125 L 50.347656 19.351562 C 53.703125 19.441406 55.210938 18.261719 55.210938 15.539062 C 55.210938 14.746094 55.148438 14.425781 54.890625 13.898438 C 54.257812 12.640625 53.121094 12.191406 50.464844 12.191406 L 48.890625 12.191406 Z M 52.375 13.679688 C 52.65625 13.796875 53.003906 14.050781 53.148438 14.246094 C 53.6875 15 53.714844 16.464844 53.1875 17.171875 C 52.824219 17.683594 51.910156 18.09375 51.1875 18.09375 L 50.566406 18.09375 L 50.566406 17.414062 C 50.566406 17.054688 50.542969 16.054688 50.503906 15.207031 C 50.476562 14.371094 50.488281 13.628906 50.515625 13.578125 C 50.632812 13.398438 51.832031 13.460938 52.375 13.679688 Z M 52.375 13.679688 "/>
<path style=" stroke:none;fill-rule:nonzero;fill:rgb(0%,0%,0%);fill-opacity:1;" d="M 69.878906 14.5 C 69.402344 14.9375 69.128906 15.296875 69.078125 15.566406 C 69.027344 15.796875 68.769531 16.464844 68.5 17.066406 C 67.699219 18.863281 66.925781 21.417969 66.757812 22.84375 C 66.640625 23.867188 66.382812 24.675781 65.3125 27.371094 C 64.785156 28.707031 64.253906 30.15625 64.136719 30.617188 C 63.933594 31.425781 63.917969 31.441406 63.46875 31.441406 C 62.292969 31.453125 60.421875 32.132812 59.6875 32.824219 C 59.183594 33.289062 58.5 34.480469 58.152344 35.46875 L 57.867188 36.277344 L 58.113281 37.332031 C 58.308594 38.164062 58.320312 38.433594 58.203125 38.691406 C 58.113281 38.871094 58.050781 39.164062 58.050781 39.359375 C 58.050781 39.820312 58.773438 41.257812 59.144531 41.550781 C 59.328125 41.695312 59.46875 41.910156 59.46875 42.039062 C 59.46875 42.386719 58.835938 43.375 58.589844 43.386719 C 58.476562 43.398438 57.996094 43.425781 57.535156 43.425781 C 56.257812 43.464844 55.585938 43.875 54.761719 45.144531 C 54.476562 45.570312 53.703125 46.183594 51.484375 47.726562 C 49.882812 48.839844 47.910156 50.136719 47.109375 50.613281 C 45.832031 51.382812 45.664062 51.523438 45.691406 51.792969 C 45.730469 52.089844 45.523438 52.230469 43.148438 53.449219 C 41.5625 54.269531 40.015625 54.960938 39.152344 55.257812 C 37.191406 55.898438 36.042969 56.476562 33.292969 58.183594 L 30.933594 59.660156 L 29.425781 59.582031 C 27.8125 59.503906 26.882812 59.683594 26.199219 60.199219 C 26.03125 60.339844 25.695312 60.441406 25.464844 60.441406 C 25.167969 60.441406 24.898438 60.570312 24.601562 60.828125 C 24.355469 61.03125 24.097656 61.210938 24.03125 61.210938 C 23.800781 61.210938 23.335938 61.828125 23.089844 62.46875 C 22.871094 63.035156 22.871094 63.136719 23.039062 63.277344 C 23.179688 63.394531 23.296875 63.394531 23.554688 63.277344 C 23.734375 63.199219 23.992188 63.136719 24.121094 63.136719 C 24.277344 63.136719 24.457031 62.984375 24.574219 62.75 C 24.804688 62.304688 24.960938 62.289062 26.070312 62.570312 C 26.546875 62.699219 27.101562 62.75 27.425781 62.699219 C 27.722656 62.660156 28.316406 62.6875 28.753906 62.765625 C 29.785156 62.917969 30.339844 62.777344 30.972656 62.160156 C 31.425781 61.726562 31.617188 61.660156 33.566406 61.199219 C 34.726562 60.917969 36.507812 60.542969 37.539062 60.363281 C 40.132812 59.929688 40.945312 59.660156 42.003906 58.929688 C 43.640625 57.785156 45.496094 56.707031 46.621094 56.269531 C 47.859375 55.769531 48.140625 55.730469 48.386719 56.027344 C 48.566406 56.246094 49.1875 56.59375 49.394531 56.59375 C 49.472656 56.59375 49.933594 56.21875 50.4375 55.769531 C 51.316406 54.976562 52.050781 54.578125 53.109375 54.359375 C 53.523438 54.269531 53.535156 54.269531 53.921875 55.128906 C 54.140625 55.605469 54.464844 56.195312 54.644531 56.425781 C 54.824219 56.667969 55.019531 57.132812 55.070312 57.492188 C 55.132812 57.863281 55.289062 58.261719 55.457031 58.441406 C 55.625 58.621094 55.792969 59.042969 55.871094 59.53125 C 55.945312 59.96875 56.101562 60.417969 56.21875 60.519531 C 56.386719 60.699219 56.386719 60.75 56.152344 61.058594 C 55.945312 61.339844 55.90625 61.558594 55.945312 62.109375 C 56.023438 63.058594 55.777344 63.40625 54.28125 64.511719 C 53.160156 65.34375 52.476562 66.035156 52.152344 66.664062 C 52.078125 66.808594 51.894531 67.382812 51.742188 67.9375 C 51.226562 69.796875 50.734375 70.667969 49.613281 71.65625 C 49.058594 72.160156 48.503906 72.773438 48.363281 73.042969 C 48.234375 73.300781 47.808594 73.75 47.433594 74.019531 C 47.070312 74.300781 45.394531 75.867188 43.730469 77.523438 C 42.054688 79.179688 40.078125 81.089844 39.320312 81.769531 C 38.066406 82.9375 37.925781 83.027344 37.433594 83.027344 C 36.933594 83.027344 36.878906 82.988281 36.378906 82.257812 C 35.101562 80.382812 33.707031 79.511719 30.574219 78.601562 C 27.851562 77.804688 27.707031 77.753906 26.355469 77.125 C 24.859375 76.417969 24.871094 76.445312 25.167969 75.070312 C 25.269531 74.570312 25.269531 74.261719 25.15625 73.839844 C 24.960938 73.160156 24.832031 73.042969 23.980469 72.824219 C 23.605469 72.722656 23.234375 72.53125 23.128906 72.390625 C 22.898438 72.042969 22.808594 72.054688 22.355469 72.414062 C 21.761719 72.902344 21.078125 73.019531 18.78125 73.019531 C 16.640625 73.019531 16.1875 72.941406 15.957031 72.554688 C 15.789062 72.273438 15.519531 72.351562 15.222656 72.734375 C 14.949219 73.070312 14.886719 73.082031 13.855469 73.082031 C 12.835938 73.070312 12.757812 73.09375 12.695312 73.363281 C 12.65625 73.519531 12.304688 73.878906 11.917969 74.171875 C 11.09375 74.789062 10.808594 75.445312 11.105469 76.035156 C 11.441406 76.714844 11.816406 76.867188 13.675781 77.074219 C 15.984375 77.316406 16.730469 77.535156 17.003906 78.035156 C 17.453125 78.84375 17.441406 78.84375 18.433594 78.820312 C 19.183594 78.792969 19.464844 78.84375 19.96875 79.101562 C 20.304688 79.269531 20.820312 79.472656 21.117188 79.550781 C 21.402344 79.625 21.683594 79.78125 21.722656 79.894531 C 21.761719 80 22.1875 80.269531 22.652344 80.472656 C 23.683594 80.9375 25.089844 81.808594 25.324219 82.117188 C 25.695312 82.644531 30.109375 86.351562 30.921875 86.839844 C 31.21875 87.003906 31.914062 87.3125 32.46875 87.507812 C 33.0625 87.710938 33.847656 88.121094 34.378906 88.507812 C 36.273438 89.878906 36.75 89.996094 39.191406 89.699219 C 40.195312 89.570312 40.453125 89.457031 44.414062 87.480469 C 46.699219 86.339844 49.097656 85.210938 49.742188 84.964844 L 50.914062 84.542969 L 51.523438 85.003906 C 52.246094 85.542969 52.542969 85.570312 53.148438 85.171875 C 54.050781 84.554688 57.289062 82.644531 57.390625 82.644531 C 57.457031 82.644531 57.855469 83.117188 58.269531 83.695312 C 58.667969 84.285156 59.328125 85.066406 59.699219 85.453125 C 60.125 85.875 60.476562 86.375 60.589844 86.699219 C 60.835938 87.402344 61.003906 87.542969 62.28125 88.082031 C 63.429688 88.570312 63.75 88.621094 64.304688 88.417969 C 64.628906 88.289062 64.730469 88.367188 65.96875 89.535156 C 66.691406 90.226562 67.789062 91.242188 68.40625 91.792969 C 69.015625 92.332031 69.929688 93.34375 70.445312 94.039062 C 70.960938 94.71875 71.632812 95.539062 71.941406 95.835938 C 72.601562 96.5 72.691406 96.808594 72.882812 98.941406 C 73.089844 101.121094 73.476562 103.445312 73.8125 104.457031 C 74.25 105.804688 75.785156 109.347656 77.023438 111.863281 C 78.082031 114.019531 78.1875 114.3125 78.445312 115.710938 C 78.585938 116.546875 78.792969 117.394531 78.910156 117.613281 C 79.269531 118.332031 79.449219 118.945312 79.722656 120.460938 C 79.941406 121.71875 80.058594 122.039062 80.339844 122.335938 C 81.089844 123.128906 82.625 123.617188 83.527344 123.347656 C 83.835938 123.257812 83.914062 123.167969 83.914062 122.859375 C 83.925781 122.5 83.953125 122.488281 84.496094 122.488281 L 85.074219 122.488281 L 85.113281 121.976562 C 85.152344 121.488281 85.203125 121.421875 86.46875 120.550781 C 87.730469 119.679688 88.261719 119.34375 90.234375 118.214844 C 91.164062 117.6875 92.492188 116.429688 92.492188 116.085938 C 92.492188 115.816406 91.886719 115.136719 91.410156 114.890625 C 91.085938 114.710938 90.390625 114.660156 87.589844 114.570312 C 85.707031 114.519531 83.976562 114.441406 83.746094 114.390625 C 83.347656 114.3125 83.320312 114.261719 82.945312 113.070312 C 82.070312 110.257812 81.617188 108.320312 81.074219 105.101562 C 80.339844 100.800781 80.1875 100.171875 79.242188 97.976562 C 78.484375 96.230469 78.46875 96.144531 78.40625 94.769531 C 78.367188 93.960938 78.25 93.164062 78.148438 92.910156 C 78.03125 92.664062 77.554688 91.921875 77.0625 91.277344 C 76.289062 90.253906 76.097656 89.867188 75.605469 88.457031 C 74.328125 84.773438 73.734375 83.324219 72.136719 80.074219 C 71.21875 78.203125 70.316406 76.265625 70.136719 75.75 C 69.75 74.699219 69.234375 73.648438 68.847656 73.121094 L 68.574219 72.761719 L 68.871094 71.824219 C 69.039062 71.324219 69.3125 70.734375 69.480469 70.542969 C 69.839844 70.105469 69.878906 69.976562 70.019531 68.398438 C 70.109375 67.511719 70.265625 66.84375 70.601562 65.933594 C 70.859375 65.253906 71.105469 64.394531 71.144531 64.007812 C 71.257812 63.019531 70.730469 53.269531 70.496094 51.910156 C 70.226562 50.304688 69.929688 49.378906 68.667969 46.144531 L 67.570312 43.347656 L 67.96875 42.335938 L 68.371094 41.335938 L 68.371094 35.660156 L 67.96875 34.699219 C 67.582031 33.761719 67.570312 33.738281 67.710938 32.683594 C 67.789062 32.105469 67.96875 30.566406 68.113281 29.257812 C 68.253906 27.949219 68.539062 25.820312 68.757812 24.511719 C 69.183594 21.945312 69.078125 22.175781 70.125 21.300781 C 70.265625 21.1875 70.601562 20.738281 70.859375 20.3125 C 71.195312 19.761719 71.632812 19.3125 72.367188 18.75 C 73.324219 18.015625 73.722656 17.464844 73.476562 17.234375 C 73.425781 17.183594 72.882812 17.386719 72.265625 17.695312 C 71.179688 18.222656 70.445312 18.351562 70.34375 18.03125 C 70.332031 17.953125 70.625 17.734375 71.015625 17.53125 C 71.582031 17.234375 71.722656 17.105469 71.722656 16.847656 C 71.722656 16.566406 71.683594 16.554688 71.246094 16.617188 L 70.757812 16.695312 L 71.246094 16.296875 C 71.800781 15.824219 71.867188 15.4375 71.402344 15.320312 C 71.195312 15.269531 70.9375 15.335938 70.625 15.527344 C 70.070312 15.875 70.058594 15.746094 70.574219 14.976562 C 70.960938 14.386719 71.027344 13.988281 70.742188 13.898438 C 70.664062 13.871094 70.277344 14.140625 69.878906 14.5 Z M 69.878906 14.5 "/>
<path style=" stroke:none;fill-rule:nonzero;fill:rgb(0%,0%,0%);fill-opacity:1;" d="M 68.433594 111.566406 C 65.917969 112.171875 63.878906 114.070312 63.121094 116.480469 C 62.824219 117.445312 62.796875 117.703125 62.847656 118.933594 C 62.898438 120 62.988281 120.5 63.261719 121.191406 C 65.15625 126.121094 71.425781 127.480469 75.167969 123.769531 C 78.097656 120.871094 78.097656 116.394531 75.15625 113.503906 C 73.375 111.746094 70.769531 111.003906 68.433594 111.566406 Z M 68.433594 111.566406 "/>
</g>
</svg>
