<?xml version="1.0" standalone="no"?>
<!DOCTYPE svg PUBLIC "-//W3C//DTD SVG 20010904//EN"
 "http://www.w3.org/TR/2001/REC-SVG-20010904/DTD/svg10.dtd">
<svg version="1.0" xmlns="http://www.w3.org/2000/svg"
 width="775.000000pt" height="1052.000000pt" viewBox="0 0 775.000000 1052.000000"
 preserveAspectRatio="xMidYMid meet">

<g transform="translate(0.000000,1052.000000) scale(0.100000,-0.100000)"
fill="#000000" stroke="none">
<path d="M953 9562 c-71 -26 -113 -60 -148 -123 -28 -50 -30 -62 -30 -154 0
-115 16 -158 81 -215 53 -46 99 -63 179 -64 86 -1 168 34 210 90 114 150 71
388 -82 456 -63 28 -148 32 -210 10z m156 -107 c42 -21 71 -88 71 -163 0 -114
-44 -172 -133 -180 -47 -4 -57 -1 -86 24 -44 37 -61 80 -61 154 0 74 17 117
59 153 38 31 103 37 150 12z"/>
<path d="M390 9290 l0 -281 58 3 57 3 3 108 3 107 89 0 90 0 0 50 0 50 -90 0
-90 0 0 70 0 70 95 0 c93 0 95 1 101 25 3 14 3 36 0 50 l-6 25 -155 0 -155 0
0 -280z"/>
<path d="M1410 9291 l0 -281 60 0 60 0 0 105 c0 87 3 107 16 112 30 11 65 -18
114 -94 82 -131 72 -123 145 -123 36 0 65 2 65 5 0 12 -130 203 -154 224 l-26
25 37 20 c78 43 106 165 50 224 -45 48 -73 56 -224 60 l-143 4 0 -281z m245
164 c27 -26 31 -54 13 -88 -18 -35 -40 -46 -90 -47 l-48 0 0 73 c0 41 3 77 7
80 3 4 26 7 50 7 33 0 50 -6 68 -25z"/>
<path d="M1880 9556 c0 -8 27 -117 61 -243 33 -125 65 -245 70 -265 l10 -38
70 0 c83 0 69 -23 130 222 24 98 46 178 49 178 3 0 25 -80 49 -178 61 -246 48
-223 127 -220 l67 3 72 270 c40 149 69 274 65 278 -4 5 -31 7 -61 5 l-54 -3
-42 -205 c-23 -113 -43 -207 -43 -210 -1 -3 -23 83 -49 191 -26 108 -51 204
-54 213 -5 12 -20 16 -72 16 -36 0 -65 -2 -65 -5 0 -3 -20 -78 -44 -167 -25
-90 -50 -183 -57 -208 l-12 -45 -32 155 c-18 85 -38 181 -44 213 l-12 57 -65
0 c-49 0 -64 -3 -64 -14z"/>
<path d="M2845 9558 c-3 -7 -47 -130 -99 -273 -52 -143 -92 -263 -89 -267 2
-5 31 -8 63 -8 l58 0 22 65 22 65 93 0 c62 0 96 -4 102 -12 6 -7 18 -37 27
-65 l18 -53 64 0 c35 0 64 3 64 8 1 13 -183 527 -193 540 -6 7 -35 12 -79 12
-46 0 -70 -4 -73 -12z m109 -200 c16 -51 31 -101 33 -110 5 -16 -3 -18 -66
-18 -39 0 -71 3 -71 6 0 17 64 214 70 214 4 0 19 -42 34 -92z"/>
<path d="M3272 9294 l3 -279 57 -3 57 -3 3 108 c3 100 4 108 24 111 31 4 67
-30 114 -110 63 -108 63 -108 137 -108 34 0 63 2 63 5 0 12 -115 183 -143 214
-30 31 -31 34 -13 45 43 27 64 48 80 80 34 72 11 148 -57 187 -38 21 -57 24
-185 27 l-142 4 2 -278z m243 161 c27 -26 31 -51 14 -88 -14 -31 -48 -47 -99
-47 l-40 0 0 73 c0 41 3 77 7 80 3 4 26 7 50 7 33 0 50 -6 68 -25z"/>
<path d="M3792 9293 l3 -278 108 -3 c260 -7 377 85 377 297 0 62 -5 87 -25
128 -49 98 -137 133 -343 133 l-122 0 2 -277z m268 161 c22 -9 49 -29 60 -44
42 -59 44 -173 3 -228 -28 -40 -99 -72 -155 -72 l-48 0 0 53 c0 28 -2 106 -5
172 -2 65 -1 123 1 127 9 14 102 9 144 -8z"/>
<path d="M5417 9390 c-37 -34 -58 -62 -62 -83 -4 -18 -24 -70 -45 -117 -62
-140 -122 -339 -135 -450 -9 -80 -29 -143 -112 -353 -41 -104 -82 -217 -91
-253 -16 -63 -17 -64 -52 -64 -91 -1 -236 -54 -293 -108 -39 -36 -92 -129
-119 -206 l-22 -63 19 -82 c15 -65 16 -86 7 -106 -7 -14 -12 -37 -12 -52 0
-36 56 -148 85 -171 14 -11 25 -28 25 -38 0 -27 -49 -104 -68 -105 -9 -1 -46
-3 -82 -3 -99 -3 -151 -35 -215 -134 -22 -33 -82 -81 -254 -201 -124 -87 -277
-188 -339 -225 -99 -60 -112 -71 -110 -92 3 -23 -13 -34 -197 -129 -123 -64
-243 -118 -310 -141 -152 -50 -241 -95 -454 -228 l-183 -115 -117 6 c-125 6
-197 -8 -250 -48 -13 -11 -39 -19 -57 -19 -23 0 -44 -10 -67 -30 -19 -16 -39
-30 -44 -30 -18 0 -54 -48 -73 -98 -17 -44 -17 -52 -4 -63 11 -9 20 -9 40 0
14 6 34 11 44 11 12 0 26 12 35 30 18 35 30 36 116 14 37 -10 80 -14 105 -10
23 3 69 1 103 -5 80 -12 123 -1 172 47 35 34 50 39 201 75 90 22 228 51 308
65 201 34 264 55 346 112 127 89 271 173 358 207 96 39 118 42 137 19 14 -17
62 -44 78 -44 6 0 42 29 81 64 68 62 125 93 207 110 32 7 33 7 63 -60 17 -37
42 -83 56 -101 14 -19 29 -55 33 -83 5 -29 17 -60 30 -74 13 -14 26 -47 32
-85 6 -34 18 -69 27 -77 13 -14 13 -18 -5 -42 -16 -22 -19 -39 -16 -82 6 -74
-13 -101 -129 -187 -87 -65 -140 -119 -165 -168 -6 -11 -20 -56 -32 -99 -40
-145 -78 -213 -165 -290 -43 -39 -86 -87 -97 -108 -10 -20 -43 -55 -72 -76
-28 -22 -158 -144 -287 -273 -130 -129 -283 -278 -342 -331 -97 -91 -108 -98
-146 -98 -39 0 -43 3 -82 60 -99 146 -207 214 -450 285 -211 62 -222 66 -327
115 -116 55 -115 53 -92 160 8 39 8 63 -1 96 -15 53 -25 62 -91 79 -29 8 -58
23 -66 34 -18 27 -25 26 -60 -2 -46 -38 -99 -47 -277 -47 -166 0 -201 6 -219
36 -13 22 -34 16 -57 -14 -21 -26 -26 -27 -106 -27 -79 1 -85 -1 -90 -22 -3
-12 -30 -40 -60 -63 -64 -48 -86 -99 -63 -145 26 -53 55 -65 199 -81 179 -19
237 -36 258 -75 35 -63 34 -63 111 -61 58 2 80 -2 119 -22 26 -13 66 -29 89
-35 22 -6 44 -18 47 -27 3 -8 36 -29 72 -45 80 -36 189 -104 207 -128 29 -41
371 -330 434 -368 23 -13 77 -37 120 -52 46 -16 107 -48 148 -78 147 -107 184
-116 373 -93 78 10 98 19 405 173 177 89 363 177 413 196 l91 33 47 -36 c56
-42 79 -44 126 -13 70 48 321 197 329 197 5 0 36 -37 68 -82 31 -46 82 -107
111 -137 33 -33 60 -72 69 -97 19 -55 32 -66 131 -108 89 -38 114 -42 157 -26
25 10 33 4 129 -87 56 -54 141 -133 189 -176 47 -42 118 -121 158 -175 40 -53
92 -117 116 -140 51 -52 58 -76 73 -242 16 -170 46 -351 72 -430 34 -105 153
-381 249 -577 82 -168 90 -191 110 -300 11 -65 27 -131 36 -148 28 -56 42
-104 63 -222 17 -98 26 -123 48 -146 58 -62 177 -100 247 -79 24 7 30 14 30
38 1 28 3 29 45 29 l45 0 3 40 c3 38 7 43 105 111 98 68 139 94 292 182 72 41
175 139 175 166 0 21 -47 74 -84 93 -25 14 -79 18 -296 25 -146 4 -280 10
-298 14 -31 6 -33 10 -62 103 -68 219 -103 370 -145 621 -57 335 -69 384 -142
555 -59 136 -60 143 -65 250 -3 63 -12 125 -20 145 -9 19 -46 77 -84 127 -60
80 -75 110 -113 220 -99 287 -145 400 -269 653 -71 146 -141 297 -155 337 -30
82 -70 164 -100 205 l-21 28 23 73 c13 39 34 85 47 100 28 34 31 44 42 167 7
69 19 121 45 192 20 53 39 120 42 150 9 77 -32 837 -50 943 -21 125 -44 197
-142 449 l-85 218 31 79 31 78 0 221 0 221 -31 75 c-30 73 -31 75 -20 157 6
45 20 165 31 267 11 102 33 268 50 370 33 200 25 182 106 250 11 9 37 44 57
77 26 43 60 78 117 122 74 57 105 100 86 118 -4 4 -46 -12 -94 -36 -84 -41
-141 -51 -149 -26 -1 6 22 23 52 39 44 23 55 33 55 53 0 22 -3 23 -37 18 l-38
-6 38 31 c43 37 48 67 12 76 -16 4 -36 -1 -60 -16 -43 -27 -44 -17 -4 43 30
46 35 77 13 84 -6 2 -36 -19 -67 -47z"/>
<path d="M5305 1826 c-195 -47 -353 -195 -412 -383 -23 -75 -25 -95 -21 -191
4 -83 11 -122 32 -176 147 -384 633 -490 923 -201 227 226 227 575 -1 800
-138 137 -340 195 -521 151z"/>
</g>
</svg>
