<?xml version="1.0" standalone="no"?>
<!DOCTYPE svg PUBLIC "-//W3C//DTD SVG 20010904//EN"
 "http://www.w3.org/TR/2001/REC-SVG-20010904/DTD/svg10.dtd">
<svg version="1.0" xmlns="http://www.w3.org/2000/svg"
 width="890.000000pt" height="970.000000pt" viewBox="0 0 890.000000 970.000000"
 preserveAspectRatio="xMidYMid meet">

<g transform="translate(0.000000,970.000000) scale(0.100000,-0.100000)"
fill="#000000" stroke="none">
<path d="M3753 8850 c-88 -18 -174 -86 -207 -163 -38 -92 -28 -211 25 -291 23
-34 46 -53 94 -77 62 -30 67 -31 167 -27 65 3 117 11 141 22 l37 16 0 140 0
140 -115 0 -115 0 0 -50 0 -50 55 0 55 0 0 -54 c0 -30 -5 -58 -11 -62 -23 -14
-119 -6 -152 13 -95 54 -102 240 -12 311 58 46 136 51 253 16 20 -6 22 -3 22
33 0 54 -16 71 -79 83 -61 11 -98 11 -158 0z"/>
<path d="M4297 8850 c-57 -15 -90 -35 -130 -79 -56 -63 -70 -103 -71 -206 0
-103 15 -144 81 -207 52 -51 99 -68 183 -68 118 0 190 42 239 141 27 54 31 73
31 143 0 64 -5 91 -24 131 -28 59 -76 108 -128 129 -48 20 -133 28 -181 16z
m158 -133 c42 -42 60 -118 45 -195 -17 -93 -60 -132 -144 -132 -83 0 -136 70
-136 180 0 70 17 115 56 149 30 27 42 31 90 31 50 0 60 -4 89 -33z"/>
<path d="M4766 8585 c-53 -146 -96 -272 -96 -281 0 -12 12 -14 61 -12 l62 3
21 60 21 60 99 0 99 0 21 -60 21 -60 63 -3 c46 -2 62 0 62 10 0 7 -43 132 -95
278 -52 146 -95 266 -95 268 0 1 -33 2 -74 2 l-73 0 -97 -265z m234 -62 c0 -9
-21 -13 -71 -13 -62 0 -70 2 -65 18 34 113 58 190 63 202 5 14 73 -178 73
-207z"/>
<path d="M5285 8837 c-3 -7 -4 -131 -3 -277 l3 -265 163 -3 162 -2 0 49 0 50
-102 3 -103 3 -3 228 -2 227 -56 0 c-35 0 -56 -5 -59 -13z"/>
<path d="M5692 8573 l3 -278 57 -3 57 -3 3 137 3 136 90 -133 90 -134 73 -3
c39 -2 72 1 72 6 0 5 -45 72 -100 147 l-99 138 21 31 c12 17 47 65 78 106 31
41 65 87 74 103 l18 27 -71 0 -71 0 -82 -125 c-46 -68 -86 -125 -90 -125 -5 0
-8 56 -8 125 l0 125 -60 0 -60 0 2 -277z"/>
<path d="M6212 8573 l3 -278 163 -3 162 -2 0 49 0 50 -102 3 -103 3 -3 63 -3
62 90 0 c88 0 91 1 97 25 3 14 3 36 0 50 -6 23 -10 24 -94 27 l-87 3 -3 63 -3
62 101 0 101 0 -3 48 -3 47 -158 3 -157 3 2 -278z"/>
<path d="M6640 8570 l0 -280 163 2 162 3 0 45 0 45 -102 3 -103 3 0 64 0 65
90 0 90 0 0 50 0 50 -90 0 -90 0 0 65 0 65 95 0 95 0 0 50 0 50 -155 0 -155 0
0 -280z"/>
<path d="M7062 8573 l3 -278 57 -3 57 -3 3 98 3 98 75 6 c100 7 153 37 189
107 17 33 15 125 -3 160 -36 70 -102 92 -277 92 l-109 0 2 -277z m257 150 c19
-22 22 -34 18 -67 -8 -57 -36 -78 -101 -74 l-51 3 -3 74 c-4 102 -2 105 61 98
40 -5 58 -13 76 -34z"/>
<path d="M7555 8837 c-3 -7 -4 -131 -3 -277 l3 -265 162 -3 c155 -2 162 -2
168 18 4 11 4 34 0 50 l-6 29 -102 3 -102 3 0 60 0 60 90 5 90 5 3 47 3 47
-93 3 -93 3 0 60 0 60 98 3 97 3 0 49 0 50 -155 0 c-116 0 -157 -3 -160 -13z"/>
<path d="M7982 8573 l3 -278 55 0 55 0 5 105 c5 101 6 105 28 108 33 5 64 -27
123 -124 27 -45 56 -85 65 -88 25 -10 102 -7 109 4 8 12 -117 203 -148 226
-17 12 -19 17 -8 21 33 13 91 77 101 112 13 51 -2 110 -38 142 -39 35 -108 49
-243 49 l-109 0 2 -277z m242 166 c35 -28 36 -80 1 -114 -19 -20 -34 -25 -75
-25 l-50 0 0 80 0 80 49 0 c34 0 56 -6 75 -21z"/>
<path d="M2194 8056 c-207 -39 -387 -212 -434 -416 -52 -224 46 -462 243 -591
94 -61 174 -84 297 -84 88 1 117 5 177 27 224 81 366 283 367 523 1 343 -313
604 -650 541z"/>
<path d="M846 7474 c-3 -9 -6 -38 -6 -65 0 -27 -3 -49 -6 -49 -4 0 -29 20 -55
45 -52 49 -96 59 -134 31 -19 -14 -19 -17 22 -95 40 -80 43 -100 8 -61 -20 23
-70 26 -109 9 -52 -24 -40 -59 48 -141 50 -47 50 -48 19 -39 -18 5 -36 12 -41
15 -16 10 -43 -31 -44 -65 -1 -41 27 -66 212 -191 74 -49 143 -97 152 -106 25
-21 108 -166 316 -548 99 -182 199 -360 222 -395 84 -124 197 -256 380 -444
102 -105 210 -218 240 -251 30 -32 153 -148 273 -257 208 -190 221 -204 305
-330 48 -73 118 -193 155 -267 41 -82 111 -198 180 -296 61 -88 168 -240 237
-339 188 -268 326 -416 579 -619 136 -110 175 -154 252 -287 48 -84 54 -90 78
-85 89 21 83 23 137 -42 27 -34 84 -121 126 -195 l78 -133 167 -130 c358 -278
530 -399 733 -515 167 -96 441 -230 650 -319 80 -34 248 -113 374 -176 125
-63 236 -114 245 -114 10 0 58 20 109 44 87 43 93 48 147 125 41 58 64 82 88
90 139 45 364 71 618 71 139 0 162 8 194 70 29 56 20 89 -39 145 -65 61 -189
136 -273 164 -82 28 -220 28 -353 1 -111 -23 -100 -24 -274 50 -133 57 -153
53 -301 -54 -19 -14 -29 -6 -161 122 l-142 137 -11 85 c-7 47 -17 120 -22 162
l-11 77 -52 8 c-49 8 -52 10 -80 61 -15 30 -24 57 -20 61 5 5 159 13 342 20
183 6 338 14 345 17 7 2 22 24 32 47 18 39 24 43 74 54 30 6 76 15 102 18 l48
7 31 -48 c16 -26 30 -55 29 -63 0 -10 -29 -30 -69 -49 -89 -42 -140 -89 -140
-128 0 -41 49 -121 107 -175 45 -43 64 -51 197 -94 l147 -46 115 -110 c63 -60
125 -114 138 -119 13 -4 75 -12 138 -15 144 -9 158 -4 158 63 0 91 -14 116
-130 236 -82 84 -113 124 -128 162 -10 28 -33 72 -50 97 -18 25 -32 52 -32 60
0 7 28 60 62 117 47 78 64 117 69 158 5 32 17 66 29 81 38 47 63 114 68 181 5
82 -8 101 -116 163 -103 60 -427 221 -582 290 -187 83 -235 91 -535 87 -428
-5 -430 -5 -550 25 -60 14 -157 30 -215 34 -115 8 -149 20 -264 90 -38 23 -92
53 -120 65 -47 22 -118 72 -224 162 -35 29 -57 65 -112 178 -56 115 -75 145
-103 163 -24 15 -48 46 -76 100 -23 43 -40 81 -38 86 1 4 33 -11 71 -33 71
-42 126 -59 185 -60 19 0 90 -22 158 -50 128 -52 153 -57 199 -40 14 6 128 15
253 20 256 10 217 1 616 148 105 39 215 77 247 86 62 19 104 46 213 142 51 43
82 64 100 64 41 0 61 16 79 61 10 24 22 39 29 36 68 -25 157 -49 170 -44 30
11 29 60 -2 158 -35 109 -60 139 -140 169 -112 43 -165 25 -486 -169 -283
-172 -283 -171 -395 -188 -134 -19 -441 -27 -598 -15 -148 12 -147 12 -334
130 -53 34 -101 62 -106 62 -5 0 -81 50 -168 111 -305 213 -429 249 -849 249
l-176 0 -42 29 c-23 17 -55 40 -71 53 l-28 24 16 79 c24 121 36 291 24 328
-18 53 -85 141 -138 181 -59 45 -119 69 -258 103 -114 27 -159 26 -276 -3
-129 -33 -171 -79 -185 -206 -8 -61 -26 -88 -73 -104 -24 -7 -23 -45 2 -77 13
-16 23 -48 26 -79 3 -29 12 -83 20 -119 9 -36 14 -85 12 -110 -3 -40 -5 -44
-28 -43 -32 1 -175 42 -216 61 -17 8 -80 60 -140 116 -60 56 -127 116 -149
133 -53 42 -199 114 -310 153 l-90 32 -89 157 c-50 86 -120 204 -156 262 -36
58 -135 216 -218 352 l-152 246 50 142 c49 141 50 143 115 204 73 69 81 95 45
154 -47 77 -117 57 -240 -68 -77 -79 -79 -80 -129 -80 -60 0 -53 -9 -146 191
-64 141 -69 147 -111 167 -53 26 -80 28 -88 6z"/>
</g>
</svg>
