<?xml version="1.0" encoding="UTF-8"?>
<svg xmlns="http://www.w3.org/2000/svg" xmlns:xlink="http://www.w3.org/1999/xlink" width="100px" height="100px" viewBox="0 0 100 108" version="1.1">
<g id="surface1">
<path style=" stroke:none;fill-rule:nonzero;fill:rgb(0%,0%,0%);fill-opacity:1;" d="M 42.148438 9.460938 C 41.160156 9.660156 40.195312 10.417969 39.824219 11.273438 C 39.398438 12.296875 39.511719 13.621094 40.105469 14.511719 C 40.363281 14.890625 40.621094 15.101562 41.160156 15.371094 C 41.859375 15.703125 41.914062 15.714844 43.035156 15.671875 C 43.765625 15.636719 44.351562 15.546875 44.621094 15.425781 L 45.035156 15.246094 L 45.035156 12.132812 L 42.453125 12.132812 L 42.453125 13.242188 L 43.6875 13.242188 L 43.6875 13.84375 C 43.6875 14.179688 43.632812 14.492188 43.566406 14.535156 C 43.304688 14.691406 42.226562 14.601562 41.859375 14.390625 C 40.789062 13.789062 40.710938 11.71875 41.722656 10.929688 C 42.375 10.417969 43.25 10.363281 44.5625 10.75 C 44.789062 10.816406 44.8125 10.785156 44.8125 10.382812 C 44.8125 9.78125 44.632812 9.59375 43.925781 9.460938 C 43.238281 9.335938 42.824219 9.335938 42.148438 9.460938 Z M 42.148438 9.460938 "/>
<path style=" stroke:none;fill-rule:nonzero;fill:rgb(0%,0%,0%);fill-opacity:1;" d="M 48.257812 9.460938 C 47.617188 9.628906 47.25 9.847656 46.800781 10.339844 C 46.171875 11.039062 46.011719 11.484375 46 12.632812 C 46 13.777344 46.171875 14.234375 46.910156 14.9375 C 47.496094 15.503906 48.023438 15.691406 48.964844 15.691406 C 50.292969 15.691406 51.101562 15.226562 51.652344 14.125 C 51.953125 13.523438 52 13.3125 52 12.53125 C 52 11.820312 51.941406 11.519531 51.730469 11.074219 C 51.414062 10.417969 50.875 9.871094 50.292969 9.636719 C 49.753906 9.414062 48.796875 9.328125 48.257812 9.460938 Z M 50.035156 10.941406 C 50.503906 11.40625 50.707031 12.253906 50.539062 13.109375 C 50.347656 14.144531 49.863281 14.578125 48.921875 14.578125 C 47.988281 14.578125 47.394531 13.800781 47.394531 12.578125 C 47.394531 11.796875 47.585938 11.296875 48.023438 10.917969 C 48.359375 10.617188 48.496094 10.574219 49.035156 10.574219 C 49.59375 10.574219 49.707031 10.617188 50.035156 10.941406 Z M 50.035156 10.941406 "/>
<path style=" stroke:none;fill-rule:nonzero;fill:rgb(0%,0%,0%);fill-opacity:1;" d="M 53.527344 12.410156 C 52.929688 14.035156 52.449219 15.4375 52.449219 15.535156 C 52.449219 15.671875 52.582031 15.691406 53.132812 15.671875 L 53.828125 15.636719 L 54.066406 14.96875 L 54.300781 14.300781 L 56.523438 14.300781 L 56.761719 14.96875 L 56.996094 15.636719 L 57.703125 15.671875 C 58.222656 15.691406 58.402344 15.671875 58.402344 15.558594 C 58.402344 15.480469 57.917969 14.089844 57.332031 12.464844 C 56.75 10.839844 56.265625 9.503906 56.265625 9.480469 C 56.265625 9.472656 55.894531 9.460938 55.4375 9.460938 L 54.617188 9.460938 Z M 56.15625 13.097656 C 56.15625 13.199219 55.917969 13.242188 55.355469 13.242188 C 54.660156 13.242188 54.570312 13.222656 54.628906 13.042969 C 55.007812 11.785156 55.277344 10.929688 55.335938 10.796875 C 55.390625 10.640625 56.15625 12.777344 56.15625 13.097656 Z M 56.15625 13.097656 "/>
<path style=" stroke:none;fill-rule:nonzero;fill:rgb(0%,0%,0%);fill-opacity:1;" d="M 59.355469 9.605469 C 59.320312 9.683594 59.308594 11.0625 59.320312 12.6875 L 59.355469 15.636719 L 61.1875 15.671875 L 63.003906 15.691406 L 63.003906 14.589844 L 61.859375 14.558594 L 60.703125 14.523438 L 60.667969 11.988281 L 60.648438 9.460938 L 60.019531 9.460938 C 59.625 9.460938 59.390625 9.515625 59.355469 9.605469 Z M 59.355469 9.605469 "/>
<path style=" stroke:none;fill-rule:nonzero;fill:rgb(0%,0%,0%);fill-opacity:1;" d="M 63.925781 12.542969 L 63.960938 15.636719 L 64.601562 15.671875 L 65.242188 15.703125 L 65.273438 14.179688 L 65.308594 12.664062 L 66.320312 14.144531 L 67.328125 15.636719 L 68.148438 15.671875 C 68.585938 15.691406 68.957031 15.660156 68.957031 15.601562 C 68.957031 15.546875 68.453125 14.800781 67.835938 13.96875 L 66.722656 12.429688 L 66.957031 12.085938 C 67.09375 11.898438 67.488281 11.363281 67.835938 10.90625 C 68.183594 10.449219 68.566406 9.9375 68.664062 9.761719 L 68.867188 9.460938 L 67.273438 9.460938 L 66.351562 10.851562 C 65.835938 11.609375 65.386719 12.242188 65.339844 12.242188 C 65.285156 12.242188 65.25 11.617188 65.25 10.851562 L 65.25 9.460938 L 63.902344 9.460938 Z M 63.925781 12.542969 "/>
<path style=" stroke:none;fill-rule:nonzero;fill:rgb(0%,0%,0%);fill-opacity:1;" d="M 69.765625 12.542969 L 69.800781 15.636719 L 71.628906 15.671875 L 73.449219 15.691406 L 73.449219 14.589844 L 72.304688 14.558594 L 71.148438 14.523438 L 71.113281 13.824219 L 71.082031 13.132812 L 72.089844 13.132812 C 73.078125 13.132812 73.113281 13.121094 73.179688 12.855469 C 73.214844 12.699219 73.214844 12.453125 73.179688 12.296875 C 73.113281 12.042969 73.066406 12.03125 72.125 11.996094 L 71.148438 11.964844 L 71.113281 11.261719 L 71.082031 10.574219 L 73.347656 10.574219 L 73.316406 10.039062 L 73.28125 9.515625 L 71.507812 9.480469 L 69.742188 9.449219 Z M 69.765625 12.542969 "/>
<path style=" stroke:none;fill-rule:nonzero;fill:rgb(0%,0%,0%);fill-opacity:1;" d="M 74.574219 12.578125 L 74.574219 15.691406 L 76.402344 15.671875 L 78.222656 15.636719 L 78.222656 14.636719 L 77.078125 14.601562 L 75.921875 14.570312 L 75.921875 13.132812 L 77.941406 13.132812 L 77.941406 12.019531 L 75.921875 12.019531 L 75.921875 10.574219 L 78.054688 10.574219 L 78.054688 9.460938 L 74.574219 9.460938 Z M 74.574219 12.578125 "/>
<path style=" stroke:none;fill-rule:nonzero;fill:rgb(0%,0%,0%);fill-opacity:1;" d="M 79.3125 12.542969 L 79.347656 15.636719 L 79.988281 15.671875 L 80.625 15.703125 L 80.695312 13.523438 L 81.535156 13.457031 C 82.660156 13.378906 83.253906 13.042969 83.660156 12.265625 C 83.851562 11.898438 83.828125 10.875 83.625 10.484375 C 83.222656 9.703125 82.480469 9.460938 80.515625 9.460938 L 79.289062 9.460938 Z M 82.199219 10.875 C 82.414062 11.117188 82.445312 11.25 82.402344 11.617188 C 82.3125 12.253906 81.996094 12.488281 81.265625 12.441406 L 80.695312 12.410156 L 80.660156 11.585938 C 80.617188 10.449219 80.636719 10.417969 81.34375 10.496094 C 81.792969 10.550781 81.996094 10.640625 82.199219 10.875 Z M 82.199219 10.875 "/>
<path style=" stroke:none;fill-rule:nonzero;fill:rgb(0%,0%,0%);fill-opacity:1;" d="M 84.847656 9.605469 C 84.816406 9.683594 84.804688 11.0625 84.816406 12.6875 L 84.847656 15.636719 L 86.667969 15.671875 C 88.410156 15.691406 88.488281 15.691406 88.554688 15.46875 C 88.601562 15.347656 88.601562 15.089844 88.554688 14.914062 L 88.488281 14.589844 L 87.34375 14.558594 L 86.195312 14.523438 L 86.195312 13.1875 L 88.21875 13.078125 L 88.253906 12.554688 L 88.285156 12.03125 L 87.242188 11.996094 L 86.195312 11.964844 L 86.195312 10.628906 L 87.296875 10.59375 L 88.386719 10.5625 L 88.386719 9.460938 L 86.644531 9.460938 C 85.34375 9.460938 84.882812 9.492188 84.847656 9.605469 Z M 84.847656 9.605469 "/>
<path style=" stroke:none;fill-rule:nonzero;fill:rgb(0%,0%,0%);fill-opacity:1;" d="M 89.644531 12.542969 L 89.679688 15.636719 L 90.914062 15.636719 L 90.96875 14.46875 C 91.027344 13.34375 91.039062 13.300781 91.285156 13.265625 C 91.65625 13.210938 92.003906 13.566406 92.667969 14.644531 C 92.96875 15.148438 93.296875 15.59375 93.394531 15.625 C 93.675781 15.738281 94.542969 15.703125 94.621094 15.582031 C 94.710938 15.449219 93.304688 13.320312 92.957031 13.066406 C 92.765625 12.933594 92.746094 12.875 92.867188 12.832031 C 93.238281 12.6875 93.890625 11.976562 94.003906 11.585938 C 94.148438 11.019531 93.980469 10.363281 93.574219 10.003906 C 93.136719 9.617188 92.363281 9.460938 90.847656 9.460938 L 89.621094 9.460938 Z M 92.363281 10.695312 C 92.757812 11.007812 92.765625 11.585938 92.375 11.964844 C 92.160156 12.1875 91.992188 12.242188 91.53125 12.242188 L 90.96875 12.242188 L 90.96875 10.460938 L 91.519531 10.460938 C 91.902344 10.460938 92.148438 10.527344 92.363281 10.695312 Z M 92.363281 10.695312 "/>
<path style=" stroke:none;fill-rule:nonzero;fill:rgb(0%,0%,0%);fill-opacity:1;" d="M 24.640625 18.296875 C 22.316406 18.730469 20.292969 20.65625 19.765625 22.925781 C 19.183594 25.417969 20.28125 28.070312 22.496094 29.503906 C 23.550781 30.183594 24.449219 30.4375 25.832031 30.4375 C 26.820312 30.429688 27.144531 30.382812 27.820312 30.136719 C 30.335938 29.238281 31.929688 26.988281 31.941406 24.316406 C 31.953125 20.5 28.425781 17.59375 24.640625 18.296875 Z M 24.640625 18.296875 "/>
<path style=" stroke:none;fill-rule:nonzero;fill:rgb(0%,0%,0%);fill-opacity:1;" d="M 9.5 24.773438 C 9.46875 24.875 9.433594 25.195312 9.433594 25.496094 C 9.433594 25.796875 9.398438 26.042969 9.367188 26.042969 C 9.320312 26.042969 9.039062 25.820312 8.75 25.542969 C 8.164062 24.996094 7.671875 24.886719 7.242188 25.195312 C 7.03125 25.351562 7.03125 25.386719 7.492188 26.253906 C 7.941406 27.144531 7.972656 27.367188 7.582031 26.933594 C 7.355469 26.675781 6.792969 26.644531 6.355469 26.832031 C 5.773438 27.101562 5.90625 27.488281 6.894531 28.402344 C 7.457031 28.925781 7.457031 28.9375 7.109375 28.835938 C 6.90625 28.78125 6.703125 28.703125 6.648438 28.667969 C 6.46875 28.558594 6.164062 29.015625 6.15625 29.394531 C 6.144531 29.847656 6.457031 30.128906 8.535156 31.519531 C 9.367188 32.0625 10.140625 32.597656 10.242188 32.699219 C 10.523438 32.933594 11.457031 34.546875 13.792969 38.796875 C 14.902344 40.824219 16.027344 42.804688 16.285156 43.191406 C 17.226562 44.574219 18.496094 46.042969 20.550781 48.136719 C 21.699219 49.304688 22.910156 50.5625 23.246094 50.929688 C 23.585938 51.285156 24.964844 52.574219 26.3125 53.789062 C 28.648438 55.902344 28.796875 56.058594 29.738281 57.460938 C 30.277344 58.273438 31.066406 59.609375 31.480469 60.433594 C 31.941406 61.34375 32.726562 62.636719 33.5 63.726562 C 34.1875 64.707031 35.386719 66.398438 36.164062 67.5 C 38.273438 70.484375 39.824219 72.128906 42.667969 74.390625 C 44.195312 75.613281 44.632812 76.101562 45.496094 77.582031 C 46.035156 78.519531 46.101562 78.585938 46.371094 78.527344 C 47.371094 78.296875 47.304688 78.273438 47.910156 78.996094 C 48.214844 79.375 48.855469 80.34375 49.324219 81.167969 L 50.203125 82.648438 L 52.078125 84.09375 C 56.097656 87.1875 58.03125 88.535156 60.308594 89.824219 C 62.183594 90.894531 65.261719 92.386719 67.609375 93.375 C 68.507812 93.753906 70.394531 94.632812 71.808594 95.335938 C 73.214844 96.035156 74.460938 96.601562 74.5625 96.601562 C 74.675781 96.601562 75.214844 96.382812 75.785156 96.113281 C 76.761719 95.636719 76.832031 95.578125 77.4375 94.722656 C 77.898438 94.078125 78.15625 93.808594 78.425781 93.722656 C 79.988281 93.21875 82.511719 92.929688 85.367188 92.929688 C 86.925781 92.929688 87.183594 92.839844 87.546875 92.152344 C 87.871094 91.527344 87.769531 91.160156 87.105469 90.539062 C 86.375 89.859375 84.984375 89.023438 84.039062 88.710938 C 83.121094 88.402344 81.570312 88.402344 80.078125 88.703125 C 78.828125 88.957031 78.953125 88.96875 77 88.144531 C 75.503906 87.511719 75.28125 87.554688 73.617188 88.746094 C 73.40625 88.902344 73.292969 88.8125 71.808594 87.386719 L 70.214844 85.863281 L 70.09375 84.917969 C 70.011719 84.394531 69.902344 83.582031 69.84375 83.113281 L 69.722656 82.257812 L 69.136719 82.167969 C 68.585938 82.078125 68.554688 82.058594 68.238281 81.488281 C 68.070312 81.15625 67.96875 80.855469 68.015625 80.8125 C 68.070312 80.753906 69.800781 80.667969 71.855469 80.589844 C 73.910156 80.519531 75.652344 80.433594 75.730469 80.398438 C 75.808594 80.375 75.976562 80.132812 76.089844 79.875 C 76.292969 79.441406 76.359375 79.398438 76.921875 79.273438 C 77.257812 79.207031 77.773438 79.109375 78.066406 79.074219 L 78.605469 78.996094 L 78.953125 79.53125 C 79.132812 79.820312 79.289062 80.144531 79.277344 80.230469 C 79.277344 80.34375 78.953125 80.566406 78.503906 80.777344 C 77.503906 81.246094 76.933594 81.769531 76.933594 82.203125 C 76.933594 82.660156 77.480469 83.546875 78.132812 84.148438 C 78.640625 84.628906 78.851562 84.71875 80.347656 85.195312 L 81.996094 85.707031 L 83.289062 86.933594 C 83.996094 87.601562 84.691406 88.199219 84.839844 88.257812 C 84.984375 88.300781 85.679688 88.390625 86.386719 88.421875 C 88.003906 88.523438 88.164062 88.46875 88.164062 87.722656 C 88.164062 86.710938 88.003906 86.429688 86.703125 85.09375 C 85.78125 84.160156 85.433594 83.714844 85.265625 83.292969 C 85.152344 82.980469 84.894531 82.492188 84.703125 82.214844 C 84.5 81.933594 84.34375 81.632812 84.34375 81.546875 C 84.34375 81.46875 84.660156 80.878906 85.039062 80.242188 C 85.566406 79.375 85.757812 78.941406 85.816406 78.484375 C 85.871094 78.128906 86.007812 77.75 86.140625 77.582031 C 86.566406 77.058594 86.847656 76.316406 86.90625 75.570312 C 86.960938 74.65625 86.816406 74.445312 85.601562 73.753906 C 84.445312 73.085938 80.804688 71.296875 79.066406 70.527344 C 76.964844 69.601562 76.425781 69.515625 73.058594 69.558594 C 68.25 69.613281 68.226562 69.613281 66.878906 69.28125 C 66.207031 69.125 65.117188 68.945312 64.464844 68.902344 C 63.175781 68.8125 62.792969 68.679688 61.5 67.902344 C 61.074219 67.644531 60.46875 67.3125 60.152344 67.175781 C 59.625 66.933594 58.828125 66.375 57.636719 65.375 C 57.242188 65.050781 56.996094 64.652344 56.378906 63.394531 C 55.75 62.113281 55.535156 61.78125 55.222656 61.578125 C 54.953125 61.414062 54.683594 61.066406 54.367188 60.464844 C 54.109375 59.988281 53.917969 59.566406 53.941406 59.507812 C 53.953125 59.464844 54.3125 59.632812 54.738281 59.875 C 55.535156 60.34375 56.15625 60.53125 56.816406 60.542969 C 57.03125 60.542969 57.828125 60.789062 58.589844 61.101562 C 60.027344 61.679688 60.308594 61.734375 60.828125 61.546875 C 60.984375 61.480469 62.265625 61.378906 63.667969 61.324219 C 66.542969 61.210938 66.105469 61.3125 70.585938 59.675781 C 71.765625 59.242188 73 58.820312 73.359375 58.71875 C 74.054688 58.507812 74.527344 58.207031 75.753906 57.136719 C 76.324219 56.660156 76.671875 56.425781 76.875 56.425781 C 77.335938 56.425781 77.5625 56.25 77.761719 55.746094 C 77.875 55.480469 78.011719 55.3125 78.089844 55.347656 C 78.851562 55.625 79.851562 55.890625 79.996094 55.835938 C 80.335938 55.714844 80.324219 55.167969 79.976562 54.078125 C 79.582031 52.863281 79.300781 52.53125 78.402344 52.195312 C 77.144531 51.71875 76.550781 51.917969 72.945312 54.078125 C 69.765625 55.992188 69.765625 55.980469 68.507812 56.171875 C 67.003906 56.382812 63.554688 56.472656 61.792969 56.335938 C 60.128906 56.203125 60.140625 56.203125 58.042969 54.890625 C 57.445312 54.511719 56.90625 54.199219 56.851562 54.199219 C 56.792969 54.199219 55.941406 53.644531 54.964844 52.964844 C 51.539062 50.59375 50.144531 50.195312 45.429688 50.195312 L 43.453125 50.195312 L 42.980469 49.871094 C 42.722656 49.683594 42.363281 49.425781 42.183594 49.28125 L 41.867188 49.015625 L 42.046875 48.136719 C 42.316406 46.789062 42.453125 44.894531 42.316406 44.484375 C 42.117188 43.894531 41.363281 42.914062 40.769531 42.46875 C 40.105469 41.96875 39.433594 41.703125 37.871094 41.324219 C 36.589844 41.023438 36.085938 41.035156 34.769531 41.355469 C 33.320312 41.722656 32.851562 42.234375 32.691406 43.648438 C 32.601562 44.328125 32.402344 44.628906 31.875 44.808594 C 31.605469 44.886719 31.613281 45.308594 31.894531 45.664062 C 32.042969 45.84375 32.152344 46.199219 32.1875 46.542969 C 32.222656 46.867188 32.324219 47.46875 32.414062 47.867188 C 32.511719 48.269531 32.570312 48.8125 32.546875 49.09375 C 32.511719 49.535156 32.492188 49.582031 32.234375 49.570312 C 31.875 49.558594 30.265625 49.101562 29.808594 48.890625 C 29.617188 48.800781 28.910156 48.222656 28.234375 47.601562 C 27.5625 46.976562 26.808594 46.308594 26.5625 46.121094 C 25.964844 45.652344 24.324219 44.851562 23.078125 44.417969 L 22.070312 44.0625 L 21.070312 42.3125 C 20.507812 41.355469 19.722656 40.042969 19.316406 39.398438 C 18.914062 38.753906 17.800781 36.996094 16.867188 35.480469 L 15.160156 32.742188 L 15.722656 31.164062 C 16.273438 29.59375 16.285156 29.570312 17.015625 28.890625 C 17.835938 28.125 17.925781 27.835938 17.519531 27.179688 C 16.992188 26.320312 16.207031 26.542969 14.824219 27.933594 C 13.960938 28.8125 13.9375 28.824219 13.375 28.824219 C 12.703125 28.824219 12.78125 28.925781 11.734375 26.699219 C 11.015625 25.128906 10.960938 25.0625 10.488281 24.839844 C 9.894531 24.550781 9.589844 24.527344 9.5 24.773438 Z M 9.5 24.773438 "/>
</g>
</svg>
