<?xml version="1.0" encoding="UTF-8"?>
<svg xmlns="http://www.w3.org/2000/svg" xmlns:xlink="http://www.w3.org/1999/xlink" width="100px" height="100px" viewBox="0 0 100 121" version="1.1">
<g id="surface1">
<path style=" stroke:none;fill-rule:nonzero;fill:rgb(0%,0%,0%);fill-opacity:1;" d="M 44.078125 12.203125 L 44.113281 15.414062 L 45.269531 15.414062 L 45.246094 12.816406 C 45.234375 11.339844 45.269531 10.320312 45.328125 10.449219 C 45.386719 10.574219 45.78125 11.695312 46.195312 12.929688 C 46.625 14.167969 47.027344 15.253906 47.085938 15.320312 C 47.15625 15.402344 47.433594 15.472656 47.699219 15.472656 L 48.195312 15.472656 L 48.949219 13.242188 C 49.351562 12.03125 49.746094 10.898438 49.792969 10.738281 C 49.859375 10.554688 49.917969 11.328125 49.953125 12.929688 L 50.011719 15.414062 L 50.683594 15.449219 L 51.339844 15.484375 L 51.339844 9.003906 L 49.28125 9.003906 L 48.507812 11.316406 C 48.082031 12.585938 47.722656 13.625 47.699219 13.625 C 47.675781 13.625 47.339844 12.652344 46.9375 11.453125 C 46.542969 10.265625 46.171875 9.226562 46.101562 9.144531 C 46.035156 9.050781 45.664062 9.003906 45.027344 9.003906 L 44.054688 9.003906 Z M 44.078125 12.203125 "/>
<path style=" stroke:none;fill-rule:nonzero;fill:rgb(0%,0%,0%);fill-opacity:1;" d="M 52.867188 12.203125 L 52.902344 15.414062 L 53.527344 15.449219 C 53.875 15.472656 54.1875 15.4375 54.21875 15.367188 C 54.277344 15.273438 54.300781 9.503906 54.242188 9.085938 C 54.230469 9.039062 53.921875 9.003906 53.539062 9.003906 L 52.84375 9.003906 Z M 52.867188 12.203125 "/>
<path style=" stroke:none;fill-rule:nonzero;fill:rgb(0%,0%,0%);fill-opacity:1;" d="M 55.792969 9.144531 C 55.757812 9.226562 55.746094 10.667969 55.757812 12.355469 L 55.792969 15.414062 L 57.414062 15.414062 C 58.847656 15.402344 59.101562 15.378906 59.632812 15.136719 C 60.292969 14.847656 60.984375 14.167969 61.238281 13.566406 C 61.484375 12.964844 61.550781 12.007812 61.414062 11.292969 C 61.214844 10.378906 60.730469 9.746094 59.921875 9.375 C 59.320312 9.097656 59.101562 9.0625 57.5625 9.027344 C 56.1875 8.996094 55.839844 9.015625 55.792969 9.144531 Z M 59.148438 10.4375 C 60.140625 11.09375 60.28125 12.875 59.390625 13.726562 C 58.972656 14.132812 58.453125 14.316406 57.734375 14.316406 L 57.238281 14.316406 L 57.238281 10.125 L 58.046875 10.183594 C 58.523438 10.21875 58.972656 10.320312 59.148438 10.4375 Z M 59.148438 10.4375 "/>
<path style=" stroke:none;fill-rule:nonzero;fill:rgb(0%,0%,0%);fill-opacity:1;" d="M 62.617188 9.144531 C 62.59375 9.226562 62.582031 10.667969 62.59375 12.355469 L 62.617188 15.414062 L 63.34375 15.449219 L 64.0625 15.484375 L 64.0625 12.929688 L 66.152344 12.929688 L 66.121094 12.378906 L 66.085938 11.835938 L 65.078125 11.800781 L 64.0625 11.765625 L 64.0625 10.171875 L 65.195312 10.136719 L 66.316406 10.101562 L 66.316406 9.0625 L 64.488281 9.027344 C 63.089844 9.003906 62.660156 9.027344 62.617188 9.144531 Z M 62.617188 9.144531 "/>
<path style=" stroke:none;fill-rule:nonzero;fill:rgb(0%,0%,0%);fill-opacity:1;" d="M 67.414062 12.238281 L 67.414062 15.472656 L 68.800781 15.472656 L 68.800781 9.003906 L 67.414062 9.003906 Z M 67.414062 12.238281 "/>
<path style=" stroke:none;fill-rule:nonzero;fill:rgb(0%,0%,0%);fill-opacity:1;" d="M 70.328125 12.203125 L 70.363281 15.414062 L 74.179688 15.414062 L 74.179688 14.375 L 73 14.339844 L 71.808594 14.304688 L 71.808594 12.816406 L 73.890625 12.816406 L 73.890625 11.660156 L 71.808594 11.660156 L 71.808594 10.160156 L 72.90625 10.160156 C 73.984375 10.160156 74.003906 10.148438 74.074219 9.871094 C 74.109375 9.710938 74.109375 9.457031 74.074219 9.292969 L 74.003906 9.003906 L 70.304688 9.003906 Z M 70.328125 12.203125 "/>
<path style=" stroke:none;fill-rule:nonzero;fill:rgb(0%,0%,0%);fill-opacity:1;" d="M 75.277344 12.238281 L 75.277344 15.472656 L 79.09375 15.472656 L 79.09375 14.328125 L 77.914062 14.292969 L 76.722656 14.257812 L 76.6875 11.625 L 76.664062 9.003906 L 75.277344 9.003906 Z M 75.277344 12.238281 "/>
<path style=" stroke:none;fill-rule:nonzero;fill:rgb(0%,0%,0%);fill-opacity:1;" d="M 80.019531 12.238281 L 80.019531 15.496094 L 81.671875 15.460938 C 83.1875 15.414062 83.359375 15.390625 83.972656 15.089844 C 84.714844 14.734375 85.246094 14.132812 85.511719 13.394531 C 85.71875 12.804688 85.730469 11.570312 85.546875 10.921875 C 85.359375 10.320312 84.515625 9.457031 83.890625 9.25 C 83.625 9.15625 82.703125 9.0625 81.730469 9.039062 L 80.019531 8.984375 Z M 83.210938 10.402344 C 83.824219 10.691406 84.179688 11.347656 84.179688 12.191406 C 84.179688 13.472656 83.28125 14.363281 82.042969 14.292969 L 81.464844 14.257812 L 81.429688 12.355469 C 81.417969 11.316406 81.429688 10.390625 81.453125 10.308594 C 81.542969 10.066406 82.644531 10.125 83.210938 10.402344 Z M 83.210938 10.402344 "/>
<path style=" stroke:none;fill-rule:nonzero;fill:rgb(0%,0%,0%);fill-opacity:1;" d="M 86.839844 12.238281 L 86.839844 15.472656 L 90.65625 15.472656 L 90.65625 14.328125 L 89.476562 14.292969 L 88.285156 14.257812 L 88.25 13.542969 L 88.21875 12.828125 L 90.367188 12.757812 L 90.367188 11.71875 L 89.328125 11.660156 L 88.285156 11.605469 L 88.285156 10.21875 L 89.417969 10.183594 L 90.542969 10.148438 L 90.542969 9.003906 L 86.839844 9.003906 Z M 86.839844 12.238281 "/>
<path style=" stroke:none;fill-rule:nonzero;fill:rgb(0%,0%,0%);fill-opacity:1;" d="M 91.789062 9.074219 C 91.753906 9.132812 91.742188 10.574219 91.742188 12.296875 L 91.753906 15.414062 L 93.144531 15.414062 L 93.175781 14.222656 C 93.199219 13.289062 93.246094 13.023438 93.386719 12.964844 C 93.746094 12.828125 94.113281 13.171875 94.761719 14.222656 C 95.132812 14.8125 95.492188 15.332031 95.558594 15.378906 C 95.757812 15.515625 97.015625 15.484375 97.015625 15.355469 C 97.015625 15.171875 95.664062 13.207031 95.316406 12.886719 C 95.144531 12.722656 95.027344 12.574219 95.050781 12.550781 C 96.113281 11.789062 96.324219 11.488281 96.324219 10.714844 C 96.324219 10.078125 96.011719 9.558594 95.445312 9.292969 C 95.085938 9.121094 94.644531 9.0625 93.421875 9.027344 C 92.554688 9.003906 91.8125 9.027344 91.789062 9.074219 Z M 94.679688 10.308594 C 94.785156 10.425781 94.867188 10.691406 94.867188 10.921875 C 94.867188 11.511719 94.414062 11.890625 93.710938 11.890625 L 93.199219 11.890625 L 93.199219 10.023438 L 93.847656 10.066406 C 94.21875 10.101562 94.566406 10.195312 94.679688 10.308594 Z M 94.679688 10.308594 "/>
<path style=" stroke:none;fill-rule:nonzero;fill:rgb(0%,0%,0%);fill-opacity:1;" d="M 40.296875 18.058594 C 39.628906 18.289062 39.386719 18.449219 38.898438 18.96875 C 38.007812 19.917969 37.789062 20.691406 37.707031 22.988281 L 37.640625 24.789062 L 37.210938 25.425781 L 36.792969 26.058594 L 34.585938 26.140625 C 33.058594 26.199219 32.15625 26.175781 31.683594 26.082031 C 31.035156 25.953125 30.976562 25.964844 30.492188 26.242188 C 30.203125 26.417969 29.488281 27.109375 28.851562 27.847656 C 28.226562 28.5625 27.554688 29.246094 27.359375 29.371094 C 26.664062 29.789062 26.015625 30.386719 25.738281 30.863281 C 25.460938 31.347656 25.058594 32.5 24.15625 35.445312 C 23.460938 37.730469 23.472656 37.664062 23.359375 40.859375 C 23.265625 43.710938 23.253906 43.863281 22.894531 44.972656 C 22.628906 45.835938 22.546875 46.242188 22.605469 46.585938 C 22.640625 46.839844 22.804688 47.890625 22.953125 48.917969 C 23.113281 49.980469 23.335938 51.03125 23.472656 51.355469 C 23.691406 51.863281 23.796875 51.957031 24.527344 52.300781 C 24.964844 52.523438 25.324219 52.707031 25.324219 52.730469 C 25.324219 52.742188 25.011719 53.214844 24.628906 53.769531 C 24.050781 54.625 23.914062 54.921875 23.785156 55.617188 C 23.660156 56.296875 23.519531 56.609375 23.023438 57.3125 C 22.304688 58.351562 21.855469 59.289062 21.855469 59.726562 C 21.855469 59.910156 21.648438 60.871094 21.402344 61.863281 L 20.953125 63.675781 L 20.871094 67.425781 C 20.835938 69.496094 20.800781 71.433594 20.8125 71.757812 C 20.824219 72.472656 21.078125 74.746094 21.460938 77.726562 L 21.761719 80 L 21.519531 80.3125 C 21.21875 80.695312 21.21875 80.890625 21.507812 83.996094 C 21.738281 86.582031 21.957031 87.550781 22.746094 89.539062 C 23.578125 91.640625 24.121094 92.25 25.171875 92.25 C 25.808594 92.25 26.894531 91.917969 27.164062 91.628906 C 27.554688 91.210938 27.796875 90.035156 27.796875 88.476562 L 27.808594 87.066406 L 27.3125 86.398438 C 26.480469 85.277344 26.261719 84.6875 26.132812 83.324219 C 26.0625 82.65625 25.855469 81.46875 25.660156 80.683594 C 25.324219 79.355469 25.300781 79.179688 25.371094 77.933594 C 25.507812 75.71875 25.773438 73.292969 25.972656 72.566406 C 26.515625 70.511719 26.722656 69.5625 26.839844 68.523438 C 26.90625 67.890625 26.988281 67.160156 27.011719 66.894531 L 27.070312 66.421875 L 29.230469 65.984375 C 30.421875 65.742188 31.730469 65.429688 32.132812 65.28125 C 33 64.957031 33.382812 64.933594 34.238281 65.1875 C 34.875 65.382812 35.324219 65.753906 36.171875 66.828125 C 36.378906 67.09375 36.992188 67.578125 37.617188 67.957031 C 38.195312 68.316406 38.796875 68.710938 38.933594 68.847656 C 39.074219 68.976562 39.328125 69.484375 39.488281 69.980469 C 39.652344 70.464844 39.859375 70.925781 39.941406 70.996094 C 40.019531 71.0625 40.425781 71.109375 40.84375 71.097656 C 41.699219 71.0625 41.476562 70.949219 44.367188 72.992188 C 45.210938 73.582031 46.542969 74.425781 47.316406 74.863281 C 49.203125 75.914062 50.070312 76.503906 51.132812 77.449219 C 51.617188 77.875 52.300781 78.382812 52.660156 78.558594 C 53.757812 79.113281 55.097656 80.707031 56.058594 82.609375 C 56.996094 84.46875 59.148438 87.460938 61.308594 89.90625 C 63.714844 92.632812 64.40625 93.660156 65.019531 95.4375 C 65.519531 96.859375 65.863281 97.5625 66.675781 98.773438 C 67.007812 99.28125 67.632812 100.367188 68.0625 101.199219 C 69.101562 103.21875 69.160156 103.277344 69.933594 103.566406 C 71.4375 104.132812 73.171875 103.957031 73.878906 103.160156 C 74.292969 102.6875 74.304688 102.539062 74.050781 101.558594 C 73.683594 100.148438 73.195312 99.339844 71.390625 97.15625 C 70.445312 96.015625 69.519531 94.882812 69.34375 94.652344 C 68.894531 94.0625 67.496094 91.003906 66.003906 87.34375 C 64.128906 82.738281 63.785156 82.054688 62.464844 80.429688 C 61.851562 79.667969 60.683594 78.328125 59.886719 77.460938 C 59.078125 76.59375 58.210938 75.601562 57.957031 75.265625 C 57.332031 74.425781 55.746094 71.828125 55.179688 70.695312 C 54.730469 69.804688 54.289062 69.183594 49.351562 62.335938 C 47.015625 59.089844 46.96875 59.011719 46.65625 57.949219 C 46.496094 57.347656 46.183594 56.585938 45.988281 56.25 C 45.78125 55.917969 45.535156 55.5 45.445312 55.351562 C 45.28125 55.085938 45.292969 55.039062 45.535156 54.84375 C 45.6875 54.714844 46.300781 54.347656 46.902344 54.023438 C 48.507812 53.132812 48.660156 52.984375 48.914062 51.957031 C 49.375 50.132812 49.941406 46.621094 50.128906 44.394531 C 50.242188 43.125 50.371094 41.992188 50.429688 41.875 C 50.53125 41.691406 50.820312 41.679688 54.035156 41.679688 L 57.527344 41.679688 L 58.488281 42.648438 C 59.574219 43.746094 59.921875 43.953125 60.859375 44.058594 C 61.472656 44.128906 61.515625 44.152344 61.933594 44.761719 C 62.640625 45.789062 63.761719 46.550781 64.996094 46.851562 C 66.121094 47.128906 68.199219 47.234375 70.027344 47.09375 C 71.785156 46.96875 71.808594 46.96875 72.351562 47.246094 C 72.792969 47.453125 72.917969 47.582031 72.941406 47.835938 C 72.964844 48.066406 73.113281 48.238281 73.460938 48.46875 C 73.726562 48.640625 73.992188 48.816406 74.0625 48.863281 C 74.132812 48.90625 73.992188 49.140625 73.714844 49.417969 C 73.230469 49.914062 73.253906 50.0625 73.832031 50.167969 C 74.121094 50.222656 74.273438 50.15625 74.78125 49.714844 C 75.105469 49.417969 75.40625 49.183594 75.4375 49.183594 C 75.472656 49.183594 75.613281 49.394531 75.738281 49.660156 C 75.960938 50.074219 76.015625 50.121094 76.351562 50.085938 L 76.722656 50.050781 L 76.757812 48.953125 C 76.804688 47.394531 76.386719 46.066406 75.554688 45.144531 C 75.082031 44.625 74.859375 44.542969 73.082031 44.265625 C 72.0625 44.105469 71.253906 43.839844 68.109375 42.636719 C 66.039062 41.855469 64.292969 41.148438 64.222656 41.070312 C 64.140625 40.988281 63.5625 40.304688 62.9375 39.542969 C 60.800781 36.96875 59.378906 35.652344 54.175781 31.472656 C 51.664062 29.464844 51.597656 29.417969 49.25 28.230469 C 46.378906 26.785156 46.324219 26.71875 46.832031 25.226562 C 47.097656 24.441406 47.132812 23.921875 46.902344 23.832031 C 46.785156 23.785156 46.714844 23.472656 46.65625 22.769531 C 46.484375 20.296875 46.242188 19.453125 45.59375 18.980469 C 44.042969 17.839844 42 17.480469 40.296875 18.058594 Z M 30.445312 36.796875 C 30.515625 36.921875 30.203125 39.417969 30.019531 40.179688 C 29.9375 40.527344 29.671875 41.519531 29.441406 42.375 C 29.210938 43.261719 28.863281 45.0625 28.652344 46.53125 C 28.433594 47.972656 28.214844 49.128906 28.144531 49.152344 C 28.074219 49.171875 27.625 48.757812 27.140625 48.226562 L 26.273438 47.269531 L 26.027344 45.90625 C 25.738281 44.300781 25.785156 43.964844 26.597656 42.128906 C 27.53125 39.996094 27.742188 39.417969 27.984375 38.214844 C 28.109375 37.546875 28.25 36.933594 28.273438 36.855469 C 28.332031 36.703125 30.355469 36.644531 30.445312 36.796875 Z M 30.445312 36.796875 "/>
<path style=" stroke:none;fill-rule:nonzero;fill:rgb(0%,0%,0%);fill-opacity:1;" d="M 29.300781 92.644531 C 24.746094 93.671875 23.125 99.191406 26.410156 102.480469 C 30.085938 106.152344 36.320312 103.566406 36.320312 98.359375 C 36.320312 95.820312 34.691406 93.566406 32.308594 92.828125 C 31.3125 92.527344 30.15625 92.457031 29.300781 92.644531 Z M 29.300781 92.644531 "/>
</g>
</svg>
