<?xml version="1.0" standalone="no"?>
<!DOCTYPE svg PUBLIC "-//W3C//DTD SVG 20010904//EN"
 "http://www.w3.org/TR/2001/REC-SVG-20010904/DTD/svg10.dtd">
<svg version="1.0" xmlns="http://www.w3.org/2000/svg"
 width="865.000000pt" height="1048.000000pt" viewBox="0 0 865.000000 1048.000000"
 preserveAspectRatio="xMidYMid meet">

<g transform="translate(0.000000,1048.000000) scale(0.100000,-0.100000)"
fill="#000000" stroke="none">
<path d="M3812 9423 l3 -278 50 0 50 0 -2 225 c-1 128 2 216 7 205 5 -11 39
-108 75 -215 37 -107 72 -201 77 -207 6 -7 30 -13 53 -13 l43 0 65 193 c35
105 69 203 73 217 6 16 11 -51 14 -190 l5 -215 58 -3 57 -3 0 281 0 280 -89 0
-89 0 -67 -200 c-37 -110 -68 -200 -70 -200 -2 0 -31 84 -66 188 -34 103 -66
193 -72 200 -6 8 -38 12 -93 12 l-84 0 2 -277z"/>
<path d="M4572 9423 l3 -278 54 -3 c30 -2 57 1 60 7 5 8 7 508 2 544 -1 4 -28
7 -61 7 l-60 0 2 -277z"/>
<path d="M4825 9688 c-3 -7 -4 -132 -3 -278 l3 -265 140 0 c124 1 146 3 192
24 57 25 117 84 139 136 21 52 27 135 15 197 -17 79 -59 134 -129 166 -52 24
-71 27 -204 30 -119 3 -149 1 -153 -10z m290 -112 c86 -57 98 -211 21 -285
-36 -35 -81 -51 -143 -51 l-43 0 0 181 0 182 70 -5 c41 -3 80 -12 95 -22z"/>
<path d="M5415 9688 c-2 -7 -3 -132 -2 -278 l2 -265 63 -3 62 -3 0 111 0 110
91 0 90 0 -3 48 -3 47 -87 3 -88 3 0 69 0 69 98 3 97 3 0 45 0 45 -158 3
c-121 2 -158 0 -162 -10z"/>
<path d="M5830 9420 l0 -280 60 0 60 0 0 280 0 280 -60 0 -60 0 0 -280z"/>
<path d="M6082 9423 l3 -278 165 0 165 0 0 45 0 45 -102 3 -103 3 0 64 0 65
90 0 90 0 0 50 0 50 -90 0 -90 0 0 65 0 65 95 0 c93 0 95 1 101 25 3 14 3 36
0 50 l-6 25 -160 0 -160 0 2 -277z"/>
<path d="M6510 9420 l0 -280 165 0 165 0 0 50 0 49 -102 3 -103 3 -3 228 -2
227 -60 0 -60 0 0 -280z"/>
<path d="M6920 9420 l0 -282 143 3 c131 4 146 6 199 32 64 31 110 83 133 147
18 51 19 158 3 214 -16 52 -89 127 -143 145 -23 8 -103 16 -187 18 l-148 5 0
-282z m276 159 c53 -25 84 -82 84 -155 0 -111 -78 -188 -185 -182 l-50 3 -3
165 c-1 90 0 170 2 177 8 21 103 16 152 -8z"/>
<path d="M7510 9420 l0 -280 165 0 165 0 0 50 0 49 -102 3 -103 3 -3 62 -3 62
93 3 93 3 0 45 0 45 -90 5 -90 5 0 60 0 60 98 3 97 3 0 49 0 50 -160 0 -160 0
0 -280z"/>
<path d="M7938 9694 c-3 -5 -4 -130 -4 -279 l1 -270 60 0 60 0 3 103 c2 81 6
104 18 109 31 12 63 -18 119 -109 32 -51 63 -96 69 -100 17 -12 126 -9 126 2
0 16 -117 186 -147 214 -15 14 -25 27 -23 29 92 66 110 92 110 159 0 55 -27
100 -76 123 -31 15 -69 20 -175 23 -75 2 -139 0 -141 -4z m250 -107 c9 -10 16
-33 16 -53 0 -51 -39 -84 -100 -84 l-44 0 0 81 0 81 56 -4 c32 -3 62 -11 72
-21z"/>
<path d="M3485 8916 c-58 -20 -79 -34 -121 -79 -77 -82 -96 -149 -103 -348
l-6 -156 -37 -55 -36 -55 -191 -7 c-132 -5 -210 -3 -251 5 -56 11 -61 10 -103
-14 -25 -15 -87 -75 -142 -139 -54 -62 -112 -121 -129 -132 -60 -36 -116 -88
-140 -129 -24 -42 -59 -142 -137 -397 -60 -198 -59 -192 -69 -469 -8 -247 -9
-260 -40 -356 -23 -75 -30 -110 -25 -140 3 -22 17 -113 30 -202 14 -92 33
-183 45 -211 19 -44 28 -52 91 -82 38 -19 69 -35 69 -37 0 -1 -27 -42 -60 -90
-50 -74 -62 -100 -73 -160 -11 -59 -23 -86 -66 -147 -62 -90 -101 -171 -101
-209 0 -16 -18 -99 -39 -185 l-39 -157 -7 -325 c-3 -179 -6 -347 -5 -375 1
-62 23 -259 56 -517 l26 -197 -21 -27 c-26 -33 -26 -50 -1 -319 20 -224 39
-308 107 -480 72 -182 119 -235 210 -235 55 0 149 29 172 54 34 36 55 138 55
273 l1 122 -43 58 c-72 97 -91 148 -102 266 -6 58 -24 161 -41 229 -29 115
-31 130 -25 238 12 192 35 402 52 465 47 178 65 260 75 350 6 55 13 118 15
141 l5 41 187 38 c103 21 216 48 251 61 75 28 108 30 182 8 55 -17 94 -49 167
-142 18 -23 71 -65 125 -98 50 -31 102 -65 114 -77 12 -11 34 -55 48 -98 14
-42 32 -82 39 -88 7 -6 42 -10 78 -9 74 3 55 13 305 -164 73 -51 188 -124 255
-162 163 -91 238 -142 330 -224 42 -37 101 -81 132 -96 95 -48 211 -186 294
-351 81 -161 267 -420 454 -632 208 -236 268 -325 321 -479 43 -123 73 -184
143 -289 29 -44 83 -138 120 -210 90 -175 95 -180 162 -205 130 -49 280 -34
341 35 36 41 37 54 15 139 -32 122 -74 192 -230 381 -82 99 -162 197 -177 217
-39 51 -160 316 -289 633 -162 399 -192 458 -306 599 -53 66 -154 182 -223
257 -70 75 -145 161 -167 190 -54 73 -191 298 -240 396 -39 77 -77 131 -504
724 -202 281 -206 288 -233 380 -14 52 -41 118 -58 147 -18 29 -39 65 -47 78
-14 23 -13 27 8 44 13 11 66 43 118 71 139 77 152 90 174 179 40 158 89 462
105 655 10 110 21 208 26 218 9 16 34 17 312 17 l302 0 83 -84 c94 -95 124
-113 205 -122 53 -6 57 -8 93 -61 61 -89 158 -155 265 -181 97 -24 277 -33
435 -21 152 11 154 11 201 -13 38 -18 49 -29 51 -51 2 -20 15 -35 45 -55 23
-15 46 -30 52 -34 6 -4 -6 -24 -30 -48 -42 -43 -40 -56 10 -65 25 -5 38 1 82
39 28 26 54 46 57 46 3 0 15 -18 26 -41 19 -36 24 -40 53 -37 l32 3 3 95 c4
135 -32 250 -104 330 -41 45 -60 52 -214 76 -88 14 -158 37 -430 141 -179 68
-330 129 -336 136 -7 7 -57 66 -111 132 -185 223 -308 337 -758 699 -217 174
-223 178 -426 281 -248 125 -253 131 -209 260 23 68 26 113 6 121 -10 4 -16
31 -21 92 -15 214 -36 287 -92 328 -134 99 -311 130 -458 80z m-852 -1623 c6
-11 -21 -227 -37 -293 -7 -30 -30 -116 -50 -190 -20 -77 -50 -233 -68 -360
-19 -125 -38 -225 -44 -227 -6 -2 -45 34 -87 80 l-75 83 -21 118 c-25 139 -21
168 49 327 81 185 99 235 120 339 11 58 23 111 25 118 5 13 180 18 188 5z"/>
<path d="M2534 2456 c-394 -89 -534 -567 -250 -852 318 -318 857 -94 857 357
0 220 -141 415 -347 479 -86 26 -186 32 -260 16z"/>
</g>
</svg>
